<svg xmlns="http://www.w3.org/2000/svg" xmlns:xlink="http://www.w3.org/1999/xlink" id="body_12" preserveAspectRatio="xMinYMin meet" viewBox="0 0 960 720"><defs><clipPath id="1"><path id="" clip-rule="evenodd" transform="matrix(1 0 0 1 0 0)" d="M0 540L0 0L0 0L720 0L720 0L720 540L720 540L0 540z" /></clipPath><clipPath id="2"><path id="" clip-rule="evenodd" transform="matrix(1 0 0 1 0 0)" d="M0 539.9999L720 539.9999L720 539.9999L720 -0.0001220703L720 -0.0001220703L0 -0.0001220703z" /></clipPath><clipPath id="3"><path id="" clip-rule="evenodd" transform="matrix(1 0 0 1 0 0)" d="M1E-05 540L720 540L720 540L720 0L720 0L1E-05 0z" /></clipPath><clipPath id="4"><path id="" clip-rule="evenodd" transform="matrix(1 0 0 1 0 0)" d="M1E-05 540L720 540L720 540L720 0L720 0L1E-05 0z" /></clipPath><clipPath id="5"><path id="" clip-rule="evenodd" transform="matrix(1 0 0 1 0 0)" d="M1E-05 540L720 540L720 540L720 0L720 0L1E-05 0z" /></clipPath><clipPath id="6"><path id="" clip-rule="evenodd" transform="matrix(1 0 0 1 0 0)" d="M1E-05 540L720 540L720 540L720 0L720 0L1E-05 0z" /></clipPath><clipPath id="7"><path id="" clip-rule="evenodd" transform="matrix(1 0 0 1 0 0)" d="M1E-05 540L720 540L720 540L720 0L720 0L1E-05 0z" /></clipPath><clipPath id="8"><path id="" clip-rule="evenodd" transform="matrix(1 0 0 1 0 0)" d="M1E-05 540L720 540L720 540L720 0L720 0L1E-05 0z" /></clipPath><clipPath id="9"><path id="" clip-rule="evenodd" transform="matrix(1 0 0 1 0 0)" d="M1E-05 540L720 540L720 540L720 0L720 0L1E-05 0z" /></clipPath><clipPath id="10"><path id="" clip-rule="evenodd" transform="matrix(1 0 0 1 0 0)" d="M1E-05 540L720 540L720 540L720 0L720 0L1E-05 0z" /></clipPath><clipPath id="11"><path id="" clip-rule="evenodd" transform="matrix(1 0 0 1 0 0)" d="M1E-05 540L720 540L720 540L720 0L720 0L1E-05 0z" /></clipPath><clipPath id="12"><path id="" clip-rule="evenodd" transform="matrix(1 0 0 1 0 0)" d="M1E-05 540L720 540L720 540L720 0L720 0L1E-05 0z" /></clipPath><clipPath id="13"><path id="" clip-rule="evenodd" transform="matrix(1 0 0 1 0 0)" d="M1E-05 540L720 540L720 540L720 0L720 0L1E-05 0z" /></clipPath><clipPath id="14"><path id="" clip-rule="evenodd" transform="matrix(1 0 0 1 0 0)" d="M1E-05 540L720 540L720 540L720 0L720 0L1E-05 0z" /></clipPath><clipPath id="15"><path id="" clip-rule="evenodd" transform="matrix(1 0 0 1 0 0)" d="M1E-05 540L720 540L720 540L720 0L720 0L1E-05 0z" /></clipPath><clipPath id="16"><path id="" clip-rule="evenodd" transform="matrix(1 0 0 1 0 0)" d="M1E-05 540L720 540L720 540L720 0L720 0L1E-05 0z" /></clipPath></defs><g transform="matrix(1.333333 0 0 1.333333 0 0)"><g clip-path="url(#1)"><g clip-path="url(#2)"><path id="1" transform="matrix(1 0 0 -1 0 540)" d="M0 6E-05L720 6E-05L720 6E-05L720 540.0001L720 540.0001L0 540.0001z" stroke="none" fill="#FFFFFF" fill-rule="evenodd" /></g><g clip-path="url(#3)"></g><g clip-path="url(#4)"></g><g clip-path="url(#5)"></g><g clip-path="url(#6)"></g><path id="96" transform="matrix(1 0 0 -1 0 540)" d="M243.53 278.1L322.01 278.1L322.01 278.1L322.01 315.66L322.01 315.66L243.53 315.66z" stroke="none" fill="#FFFFFF" fill-rule="evenodd" /><path id="97" transform="matrix(1 0 0 -1 0 540)" d="M243.53 278.1L322.01 278.1L322.01 278.1L322.01 315.66L322.01 315.66L243.53 315.66z" stroke="#000000" stroke-width="2.039" fill="none" stroke-opacity="0.09803922" /><path id="98" transform="matrix(1 0 0 -1 0 540)" d="M297.33 291.21C 297.33 291.16 297.32 291.11 297.3 291.07C 297.27 291.04 297.24 291.01 297.19 291C 297.13 290.97 297.04 290.95 296.94 290.94C 296.84 290.92 296.73 290.92 296.57 290.92C 296.41 290.92 296.29 290.92 296.19 290.94C 296.07 290.94 296 290.95 295.92 290.97C 295.85 291 295.79 291.02 295.75 291.07C 295.71 291.11 295.67 291.14 295.64 291.21L295.64 291.21L292.29 295.57L292.29 295.57L292.29 291.2C 292.29 291.14 292.27 291.11 292.26 291.07C 292.24 291.04 292.2 291.01 292.14 291C 292.08 290.97 292.01 290.95 291.92 290.94C 291.82 290.92 291.71 290.92 291.57 290.92C 291.42 290.92 291.3 290.92 291.22 290.94C 291.11 290.95 291.04 290.97 290.98 291C 290.94 291.01 290.89 291.04 290.87 291.07C 290.85 291.11 290.84 291.14 290.84 291.2L290.84 291.2L290.84 302.94C 290.84 302.98 290.85 303.02 290.87 303.05C 290.89 303.1 290.94 303.13 290.98 303.14C 291.04 303.17 291.11 303.19 291.22 303.2C 291.3 303.22 291.42 303.22 291.57 303.22C 291.71 303.22 291.82 303.22 291.92 303.2C 292.01 303.19 292.08 303.17 292.14 303.14C 292.2 303.13 292.24 303.1 292.26 303.05C 292.27 303.02 292.29 302.98 292.29 302.94L292.29 302.94L292.29 295.79L292.29 295.79L295.27 299.07C 295.32 299.13 295.37 299.17 295.42 299.22C 295.48 299.26 295.54 299.29 295.61 299.3C 295.7 299.33 295.77 299.35 295.87 299.36C 295.97 299.37 296.1 299.37 296.24 299.37C 296.38 299.37 296.51 299.37 296.61 299.36C 296.71 299.35 296.79 299.33 296.84 299.31C 296.91 299.29 296.95 299.27 296.98 299.24C 297.01 299.21 297.01 299.17 297.01 299.11C 297.01 299.04 297.01 298.97 296.97 298.91C 296.92 298.83 296.86 298.75 296.77 298.66L296.77 298.66L293.91 295.79L293.91 295.79L297.13 291.61C 297.21 291.51 297.26 291.44 297.29 291.37C 297.32 291.31 297.33 291.26 297.33 291.21zM288.97 292.39C 288.97 292.29 288.97 292.22 288.95 292.14C 288.95 292.07 288.94 292.01 288.92 291.95C 288.91 291.91 288.89 291.85 288.87 291.82C 288.85 291.79 288.8 291.73 288.74 291.66C 288.67 291.58 288.54 291.5 288.36 291.38C 288.19 291.27 287.98 291.17 287.77 291.1C 287.54 291.01 287.3 290.94 287.05 290.88C 286.79 290.83 286.52 290.8 286.26 290.8C 285.69 290.8 285.17 290.91 284.75 291.08C 284.3 291.27 283.94 291.54 283.64 291.91C 283.34 292.27 283.11 292.72 282.97 293.24C 282.8 293.77 282.73 294.36 282.73 295.05C 282.73 295.83 282.82 296.51 283.01 297.05C 283.21 297.61 283.47 298.07 283.79 298.44C 284.13 298.79 284.51 299.05 284.97 299.24C 285.41 299.41 285.89 299.5 286.41 299.5C 286.67 299.5 286.91 299.47 287.16 299.41C 287.39 299.37 287.61 299.31 287.8 299.24C 288.01 299.16 288.19 299.07 288.33 298.97C 288.5 298.87 288.61 298.79 288.67 298.72C 288.75 298.64 288.79 298.6 288.82 298.54C 288.84 298.51 288.87 298.47 288.88 298.41C 288.91 298.34 288.91 298.29 288.92 298.22C 288.92 298.14 288.94 298.05 288.94 297.95C 288.94 297.73 288.91 297.57 288.85 297.47C 288.8 297.38 288.74 297.33 288.67 297.33C 288.57 297.33 288.47 297.38 288.35 297.48C 288.25 297.57 288.1 297.69 287.92 297.8C 287.75 297.91 287.54 298.02 287.29 298.13C 287.04 298.23 286.75 298.27 286.41 298.27C 285.71 298.27 285.17 298.01 284.79 297.47C 284.42 296.92 284.24 296.16 284.24 295.14C 284.24 294.63 284.29 294.17 284.38 293.79C 284.48 293.41 284.63 293.08 284.81 292.82C 285 292.57 285.23 292.37 285.51 292.26C 285.77 292.13 286.08 292.07 286.44 292.07C 286.77 292.07 287.07 292.11 287.31 292.23C 287.57 292.32 287.79 292.44 287.97 292.57C 288.16 292.7 288.3 292.8 288.44 292.91C 288.57 293.01 288.67 293.07 288.74 293.07C 288.77 293.07 288.8 293.05 288.83 293.04C 288.86 293.01 288.89 292.97 288.91 292.91C 288.94 292.85 288.94 292.79 288.95 292.71C 288.97 292.61 288.97 292.51 288.97 292.39zM279.66 295.14C 279.66 295.57 279.61 295.97 279.54 296.35C 279.45 296.74 279.32 297.07 279.14 297.35C 278.95 297.64 278.71 297.86 278.39 298.04C 278.08 298.21 277.7 298.29 277.23 298.29C 276.79 298.29 276.42 298.21 276.11 298.05C 275.8 297.91 275.54 297.69 275.34 297.41C 275.14 297.14 275 296.8 274.89 296.42C 274.79 296.04 274.76 295.63 274.76 295.17C 274.76 294.75 274.79 294.33 274.87 293.95C 274.94 293.57 275.08 293.24 275.27 292.95C 275.45 292.67 275.71 292.44 276.01 292.27C 276.33 292.11 276.73 292.02 277.19 292.02C 277.61 292.02 277.98 292.11 278.29 292.26C 278.61 292.41 278.86 292.63 279.07 292.89C 279.27 293.17 279.41 293.51 279.51 293.88C 279.61 294.27 279.66 294.69 279.66 295.14zM281.16 295.24C 281.16 294.6 281.07 294 280.91 293.45C 280.74 292.91 280.47 292.44 280.14 292.05C 279.8 291.67 279.38 291.35 278.87 291.14C 278.37 290.91 277.79 290.8 277.11 290.8C 276.47 290.8 275.89 290.91 275.41 291.1C 274.94 291.29 274.52 291.57 274.21 291.94C 273.88 292.3 273.64 292.76 273.48 293.29C 273.32 293.81 273.25 294.41 273.25 295.07C 273.25 295.73 273.33 296.31 273.5 296.85C 273.67 297.39 273.91 297.86 274.26 298.26C 274.6 298.66 275.01 298.95 275.51 299.17C 276.01 299.39 276.61 299.5 277.29 299.5C 277.94 299.5 278.5 299.41 278.98 299.21C 279.47 299.01 279.86 298.74 280.2 298.36C 280.51 298 280.76 297.54 280.91 297.02C 281.07 296.5 281.16 295.89 281.16 295.24zM271.17 291.2C 271.17 291.14 271.16 291.11 271.14 291.07C 271.11 291.04 271.07 291.01 271.02 291C 270.97 290.97 270.89 290.95 270.8 290.94C 270.71 290.92 270.58 290.92 270.44 290.92C 270.3 290.92 270.19 290.92 270.1 290.94C 270 290.95 269.92 290.97 269.86 291C 269.81 291.01 269.77 291.04 269.76 291.07C 269.74 291.11 269.73 291.14 269.73 291.2L269.73 291.2L269.73 302.94C 269.73 302.98 269.74 303.02 269.76 303.05C 269.77 303.1 269.81 303.13 269.86 303.14C 269.92 303.17 270 303.19 270.1 303.2C 270.19 303.22 270.3 303.22 270.44 303.22C 270.58 303.22 270.71 303.22 270.8 303.2C 270.89 303.19 270.97 303.17 271.02 303.14C 271.07 303.13 271.11 303.1 271.14 303.05C 271.16 303.02 271.17 302.98 271.17 302.94zM265.95 294.14C 265.95 294.48 265.91 294.79 265.79 295.04C 265.69 295.3 265.52 295.51 265.31 295.7C 265.11 295.86 264.85 296.01 264.54 296.1C 264.23 296.19 263.83 296.23 263.35 296.23L263.35 296.23L261.55 296.23L261.55 296.23L261.55 292.23L261.55 292.23L263.75 292.23C 264.08 292.23 264.39 292.27 264.64 292.34C 264.91 292.42 265.14 292.54 265.32 292.71C 265.52 292.87 265.67 293.07 265.79 293.31C 265.89 293.55 265.95 293.82 265.95 294.14zM265.27 299.32C 265.27 299.6 265.24 299.84 265.16 300.07C 265.07 300.29 264.95 300.48 264.79 300.64C 264.64 300.79 264.41 300.91 264.16 301C 263.89 301.07 263.54 301.11 263.11 301.11L263.11 301.11L261.55 301.11L261.55 301.11L261.55 297.44L261.55 297.44L263.27 297.44C 263.67 297.44 263.97 297.48 264.22 297.58C 264.45 297.69 264.66 297.82 264.81 298.01C 264.97 298.17 265.08 298.37 265.16 298.61C 265.24 298.83 265.27 299.07 265.27 299.32zM267.54 294.24C 267.54 293.87 267.5 293.54 267.41 293.25C 267.31 292.94 267.2 292.67 267.02 292.44C 266.86 292.2 266.67 291.98 266.44 291.79C 266.21 291.61 265.94 291.47 265.66 291.34C 265.36 291.22 265.05 291.13 264.72 291.07C 264.38 291.01 264.01 290.97 263.58 290.97L263.58 290.97L260.61 290.97C 260.47 290.97 260.34 291.01 260.23 291.11C 260.11 291.21 260.04 291.36 260.04 291.58L260.04 291.58L260.04 301.74C 260.04 301.95 260.11 302.11 260.23 302.22C 260.34 302.3 260.47 302.34 260.61 302.34L260.61 302.34L263.2 302.34C 263.87 302.34 264.44 302.29 264.86 302.16C 265.29 302.02 265.66 301.83 265.95 301.6C 266.25 301.34 266.45 301.04 266.61 300.69C 266.76 300.32 266.82 299.92 266.82 299.47C 266.82 299.21 266.79 298.94 266.73 298.7C 266.67 298.45 266.57 298.23 266.44 298.01C 266.31 297.8 266.16 297.63 265.97 297.45C 265.77 297.29 265.55 297.17 265.31 297.05C 265.63 297 265.91 296.88 266.19 296.74C 266.45 296.57 266.69 296.38 266.89 296.14C 267.1 295.91 267.26 295.61 267.36 295.29C 267.48 294.97 267.54 294.63 267.54 294.24z" stroke="none" fill="#000000" fill-rule="nonzero" fill-opacity="0.09803922" /><path id="99" transform="matrix(1 0 0 -1 0 540)" d="M305.8 291.57C 305.8 291.45 305.79 291.36 305.77 291.29C 305.76 291.22 305.74 291.16 305.71 291.11C 305.67 291.05 305.64 291.02 305.61 291.01C 305.57 290.98 305.52 290.97 305.48 290.97L305.48 290.97L299.54 290.97C 299.51 290.97 299.47 290.98 299.44 291.01C 299.39 291.02 299.36 291.05 299.33 291.11C 299.29 291.16 299.27 291.22 299.26 291.29C 299.24 291.36 299.23 291.45 299.23 291.57C 299.23 291.67 299.24 291.77 299.26 291.84C 299.27 291.91 299.29 291.98 299.32 292.04C 299.34 292.08 299.38 292.13 299.41 292.14C 299.45 292.17 299.5 292.19 299.54 292.19L299.54 292.19L301.91 292.19L301.91 292.19L301.91 300.83L301.91 300.83L299.73 299.52C 299.61 299.47 299.52 299.44 299.45 299.41C 299.38 299.41 299.33 299.42 299.29 299.45C 299.26 299.5 299.23 299.57 299.21 299.64C 299.2 299.74 299.19 299.84 299.19 299.98C 299.19 300.08 299.2 300.17 299.2 300.24C 299.21 300.3 299.23 300.36 299.24 300.41C 299.26 300.45 299.29 300.51 299.31 300.54C 299.34 300.57 299.38 300.61 299.44 300.64L299.44 300.64L302.05 302.32C 302.08 302.33 302.11 302.35 302.14 302.36C 302.19 302.37 302.23 302.38 302.27 302.39C 302.33 302.41 302.39 302.41 302.47 302.42C 302.54 302.42 302.63 302.42 302.73 302.42C 302.86 302.42 302.98 302.41 303.07 302.41C 303.17 302.39 303.25 302.38 303.29 302.35C 303.35 302.33 303.38 302.31 303.41 302.29C 303.42 302.25 303.44 302.22 303.44 302.17L303.44 302.17L303.44 292.19L303.44 292.19L305.48 292.19C 305.54 292.19 305.57 292.17 305.61 292.14C 305.67 292.13 305.7 292.08 305.73 292.04C 305.75 291.98 305.77 291.91 305.79 291.84C 305.79 291.77 305.8 291.67 305.8 291.57z" stroke="none" fill="#000000" fill-rule="nonzero" fill-opacity="0.09803922" /><g clip-path="url(#7)"></g><path id="101" transform="matrix(1 0 0 -1 0 540)" d="M142.25 278.1L220.73 278.1L220.73 278.1L220.73 315.66L220.73 315.66L142.25 315.66z" stroke="none" fill="#FFFFFF" fill-rule="evenodd" /><path id="102" transform="matrix(1 0 0 -1 0 540)" d="M142.25 278.1L220.73 278.1L220.73 278.1L220.73 315.66L220.73 315.66L142.25 315.66z" stroke="#000000" stroke-width="2.039" fill="none" /><g clip-path="url(#8)"></g><g clip-path="url(#9)"></g><path id="109" transform="matrix(1 0 0 -1 0 540)" d="M243.53 221.82L322.01 221.82L322.01 221.82L322.01 259.38L322.01 259.38L243.53 259.38z" stroke="none" fill="#FFFFFF" fill-rule="evenodd" /><path id="110" transform="matrix(1 0 0 -1 0 540)" d="M243.53 221.82L322.01 221.82L322.01 221.82L322.01 259.38L322.01 259.38L243.53 259.38z" stroke="#000000" stroke-width="2.039" fill="none" /><g clip-path="url(#10)"></g><g clip-path="url(#11)"></g><path id="117" transform="matrix(1 0 0 -1 0 540)" d="M118.3 299.83L112.31 296.79L118.34 293.83zM142.19 297.5L117.31 297.32L117.31 296.32L142.19 296.5z" stroke="none" fill="#000000" fill-rule="nonzero" /><path id="118" transform="matrix(1 0 0 -1 0 540)" d="M226.68 300L220.68 297L226.68 294zM243.47 297.5L225.68 297.5L225.68 296.5L243.47 296.5z" stroke="none" fill="#000000" fill-rule="nonzero" fill-opacity="0.09803922" /><path id="119" transform="matrix(1 0 0 -1 0 540)" d="M221.19 271.94L220.68 278.64L226.33 275.04zM243.03 240.39L222.82 274.1L223.68 274.61L243.89 240.9z" stroke="none" fill="#000000" fill-rule="nonzero" /><path id="120" transform="matrix(1 0 0 -1 0 540)" d="M344.81 221.45L423.29 221.45L423.29 221.45L423.29 259.01L423.29 259.01L344.81 259.01z" stroke="none" fill="#FFFFFF" fill-rule="evenodd" /><path id="121" transform="matrix(1 0 0 -1 0 540)" d="M344.81 221.45L423.29 221.45L423.29 221.45L423.29 259.01L423.29 259.01L344.81 259.01z" stroke="#000000" stroke-width="2.039" fill="none" /><g clip-path="url(#12)"></g><path id="128" transform="matrix(1 0 0 -1 0 540)" d="M327.95 243.36L321.95 240.36L327.95 237.36zM344.75 240.86L326.95 240.86L326.95 239.86L344.75 239.86z" stroke="none" fill="#000000" fill-rule="nonzero" /><path id="129" transform="matrix(1 0 0 -1 0 540)" d="M446.1 221.45L524.58 221.45L524.58 221.45L524.58 259.01L524.58 259.01L446.1 259.01z" stroke="none" fill="#FFFFFF" fill-rule="evenodd" /><path id="130" transform="matrix(1 0 0 -1 0 540)" d="M446.1 221.45L524.58 221.45L524.58 221.45L524.58 259.01L524.58 259.01L446.1 259.01z" stroke="#000000" stroke-width="2.039" fill="none" /><g clip-path="url(#13)"></g><path id="137" transform="matrix(1 0 0 -1 0 540)" d="M429.24 243.36L423.24 240.36L429.24 237.36zM446.02 240.86L428.24 240.86L428.24 239.86L446.02 239.86z" stroke="none" fill="#000000" fill-rule="nonzero" /><path id="138" transform="matrix(1 0 0 -1 0 540)" d="M547.38 221.58L625.86 221.58L625.86 221.58L625.86 259.14L625.86 259.14L547.38 259.14z" stroke="none" fill="#FFFFFF" fill-rule="evenodd" /><path id="139" transform="matrix(1 0 0 -1 0 540)" d="M547.38 221.58L625.86 221.58L625.86 221.58L625.86 259.14L625.86 259.14L547.38 259.14z" stroke="#000000" stroke-width="2.039" fill="none" /><g clip-path="url(#14)"></g><path id="146" transform="matrix(1 0 0 -1 0 540)" d="M530.52 243.47L524.52 240.47L530.52 237.47zM547.3 240.97L529.52 240.97L529.52 239.97L547.3 239.97z" stroke="none" fill="#000000" fill-rule="nonzero" /><g clip-path="url(#15)"></g><g clip-path="url(#16)"></g></g></g></svg>