<svg xmlns="http://www.w3.org/2000/svg" xmlns:xlink="http://www.w3.org/1999/xlink" id="body_33" preserveAspectRatio="xMinYMin meet" viewBox="0 0 960 720"><defs><clipPath id="1"><path id="" clip-rule="evenodd" transform="matrix(1 0 0 1 0 0)" d="M0 540L0 0L0 0L720 0L720 0L720 540L720 540L0 540z" /></clipPath><clipPath id="2"><path id="" clip-rule="evenodd" transform="matrix(1 0 0 1 0 0)" d="M0 539.9999L720 539.9999L720 539.9999L720 -0.0001220703L720 -0.0001220703L0 -0.0001220703z" /></clipPath><clipPath id="3"><path id="" clip-rule="evenodd" transform="matrix(1 0 0 1 0 0)" d="M1E-05 540L720 540L720 540L720 0L720 0L1E-05 0z" /></clipPath><clipPath id="4"><path id="" clip-rule="evenodd" transform="matrix(1 0 0 1 0 0)" d="M1E-05 540L720 540L720 540L720 0L720 0L1E-05 0z" /></clipPath><clipPath id="5"><path id="" clip-rule="evenodd" transform="matrix(1 0 0 1 0 0)" d="M1E-05 540L720 540L720 540L720 0L720 0L1E-05 0z" /></clipPath><clipPath id="6"><path id="" clip-rule="evenodd" transform="matrix(1 0 0 1 0 0)" d="M1E-05 540L720 540L720 540L720 0L720 0L1E-05 0z" /></clipPath><clipPath id="7"><path id="" clip-rule="evenodd" transform="matrix(1 0 0 1 0 0)" d="M1E-05 540L720 540L720 540L720 0L720 0L1E-05 0z" /></clipPath><clipPath id="8"><path id="" clip-rule="evenodd" transform="matrix(1 0 0 1 0 0)" d="M1E-05 540L720 540L720 540L720 0L720 0L1E-05 0z" /></clipPath><clipPath id="9"><path id="" clip-rule="evenodd" transform="matrix(1 0 0 1 0 0)" d="M1E-05 540L720 540L720 540L720 0L720 0L1E-05 0z" /></clipPath><clipPath id="10"><path id="" clip-rule="evenodd" transform="matrix(1 0 0 1 0 0)" d="M1E-05 540L720 540L720 540L720 0L720 0L1E-05 0z" /></clipPath><clipPath id="11"><path id="" clip-rule="evenodd" transform="matrix(1 0 0 1 0 0)" d="M1E-05 540L720 540L720 540L720 0L720 0L1E-05 0z" /></clipPath><clipPath id="12"><path id="" clip-rule="evenodd" transform="matrix(1 0 0 1 0 0)" d="M1E-05 540L720 540L720 540L720 0L720 0L1E-05 0z" /></clipPath><clipPath id="13"><path id="" clip-rule="evenodd" transform="matrix(1 0 0 1 0 0)" d="M1E-05 0L720 0L720 0L720 540L720 540L0 540" /></clipPath><clipPath id="14"><path id="" clip-rule="evenodd" transform="matrix(1 0 0 1 0 0)" d="M1E-05 0L720 0L720 0L720 540L720 540L0 540" /></clipPath><clipPath id="15"><path id="" clip-rule="evenodd" transform="matrix(1 0 0 1 0 0)" d="M1E-05 540L720 540L720 540L720 0L720 0L1E-05 0z" /></clipPath><clipPath id="16"><path id="" clip-rule="evenodd" transform="matrix(1 0 0 1 0 0)" d="M1E-05 540L720 540L720 540L720 0L720 0L1E-05 0z" /></clipPath><clipPath id="17"><path id="" clip-rule="evenodd" transform="matrix(1 0 0 1 0 0)" d="M1E-05 540L720 540L720 540L720 0L720 0L1E-05 0z" /></clipPath><clipPath id="18"><path id="" clip-rule="evenodd" transform="matrix(1 0 0 1 0 0)" d="M1E-05 0L720 0L720 0L720 540L720 540L0 540" /></clipPath><clipPath id="19"><path id="" clip-rule="evenodd" transform="matrix(1 0 0 1 0 0)" d="M1E-05 0L720 0L720 0L720 540L720 540L0 540" /></clipPath><clipPath id="20"><path id="" clip-rule="evenodd" transform="matrix(1 0 0 1 0 0)" d="M1E-05 540L720 540L720 540L720 0L720 0L1E-05 0z" /></clipPath><clipPath id="21"><path id="" clip-rule="evenodd" transform="matrix(1 0 0 1 0 0)" d="M1E-05 540L720 540L720 540L720 0L720 0L1E-05 0z" /></clipPath><clipPath id="22"><path id="" clip-rule="evenodd" transform="matrix(1 0 0 1 0 0)" d="M1E-05 540L720 540L720 540L720 0L720 0L1E-05 0z" /></clipPath><clipPath id="23"><path id="" clip-rule="evenodd" transform="matrix(1 0 0 1 0 0)" d="M1E-05 540L720 540L720 540L720 0L720 0L1E-05 0z" /></clipPath><clipPath id="24"><path id="" clip-rule="evenodd" transform="matrix(1 0 0 1 0 0)" d="M1E-05 540L720 540L720 540L720 0L720 0L1E-05 0z" /></clipPath><clipPath id="25"><path id="" clip-rule="evenodd" transform="matrix(1 0 0 1 0 0)" d="M1E-05 540L720 540L720 540L720 0L720 0L1E-05 0z" /></clipPath><clipPath id="26"><path id="" clip-rule="evenodd" transform="matrix(1 0 0 1 0 0)" d="M1E-05 540L720 540L720 540L720 0L720 0L1E-05 0z" /></clipPath><clipPath id="27"><path id="" clip-rule="evenodd" transform="matrix(1 0 0 1 0 0)" d="M1E-05 540L720 540L720 540L720 0L720 0L1E-05 0z" /></clipPath><clipPath id="28"><path id="" clip-rule="evenodd" transform="matrix(1 0 0 1 0 0)" d="M1E-05 540L720 540L720 540L720 0L720 0L1E-05 0z" /></clipPath><clipPath id="29"><path id="" clip-rule="evenodd" transform="matrix(1 0 0 1 0 0)" d="M0 539.9998L720 539.9998L720 539.9998L720 -0.0002441406L720 -0.0002441406L0 -0.0002441406z" /></clipPath><clipPath id="30"><path id="" clip-rule="evenodd" transform="matrix(1 0 0 1 0 0)" d="M1E-05 540L720 540L720 540L720 0L720 0L1E-05 0z" /></clipPath><clipPath id="31"><path id="" clip-rule="evenodd" transform="matrix(1 0 0 1 0 0)" d="M1E-05 540L720 540L720 540L720 0L720 0L1E-05 0z" /></clipPath><clipPath id="32"><path id="" clip-rule="evenodd" transform="matrix(1 0 0 1 0 0)" d="M1E-05 540L720 540L720 540L720 0L720 0L1E-05 0z" /></clipPath><clipPath id="33"><path id="" clip-rule="evenodd" transform="matrix(1 0 0 1 0 0)" d="M1E-05 540L720 540L720 540L720 0L720 0L1E-05 0z" /></clipPath><clipPath id="34"><path id="" clip-rule="evenodd" transform="matrix(1 0 0 1 0 0)" d="M-1E-05 539.9998L720 539.9998L720 539.9998L720 -0.0001831055L720 -0.0001831055L-1E-05 -0.0001831055z" /></clipPath><clipPath id="35"><path id="" clip-rule="evenodd" transform="matrix(1 0 0 1 0 0)" d="M1E-05 540L720 540L720 540L720 0L720 0L1E-05 0z" /></clipPath><clipPath id="36"><path id="" clip-rule="evenodd" transform="matrix(1 0 0 1 0 0)" d="M1E-05 540L720 540L720 540L720 0L720 0L1E-05 0z" /></clipPath></defs><g transform="matrix(1.333333 0 0 1.333333 0 0)"><g clip-path="url(#1)"><g clip-path="url(#2)"><path id="1" transform="matrix(1 0 0 -1 0 540)" d="M0 6E-05L720 6E-05L720 6E-05L720 540.0001L720 540.0001L0 540.0001z" stroke="none" fill="#FFFFFF" fill-rule="evenodd" /></g><g clip-path="url(#3)"></g><g clip-path="url(#4)"></g><g clip-path="url(#5)"></g><g clip-path="url(#6)"></g><g clip-path="url(#7)"></g><g clip-path="url(#8)"></g><g clip-path="url(#9)"></g><g clip-path="url(#10)"></g><g clip-path="url(#11)"></g><path id="63" transform="matrix(1 0 0 -1 0 540)" d="M131.82 350.94L210.3 350.94L210.3 350.94L210.3 388.5L210.3 388.5L131.82 388.5z" stroke="none" fill="#FFFFFF" fill-rule="evenodd" /><path id="64" transform="matrix(1 0 0 -1 0 540)" d="M131.82 350.94L210.3 350.94L210.3 350.94L210.3 388.5L210.3 388.5L131.82 388.5z" stroke="#000000" stroke-width="2.039" fill="none" /><g clip-path="url(#12)"></g><path id="66" transform="matrix(1 0 0 -1 0 540)" d="M107.86 372.67L101.88 369.64L107.9 366.67zM131.75 370.33L106.88 370.17L106.88 369.17L131.75 369.33z" stroke="none" fill="#000000" fill-rule="nonzero" /><g clip-path="url(#13)"><path id="67" transform="matrix(1 0 0 -1 0 540)" d="M384.05 295.97L210.89 368.81L210.89 368.81L384.05 441.66z" stroke="none" fill="#FFFFFF" fill-rule="evenodd" /></g><g clip-path="url(#14)"><path id="68" transform="matrix(1 0 0 -1 0 540)" d="M384.05 295.97L210.89 368.81L210.89 368.81L384.05 441.66z" stroke="#000000" stroke-width="2.039" fill="none" /></g><g clip-path="url(#15)"></g><g clip-path="url(#16)"></g><path id="79" transform="matrix(1 0 0 -1 0 540)" d="M132.41 247.73L210.89 247.73L210.89 247.73L210.89 285.29L210.89 285.29L132.41 285.29z" stroke="none" fill="#FFFFFF" fill-rule="evenodd" /><path id="80" transform="matrix(1 0 0 -1 0 540)" d="M132.41 247.73L210.89 247.73L210.89 247.73L210.89 285.29L210.89 285.29L132.41 285.29z" stroke="#000000" stroke-width="2.039" fill="none" /><g clip-path="url(#17)"></g><path id="83" transform="matrix(1 0 0 -1 0 540)" d="M86.398 344.66L86.159 351.35L91.665 347.52zM131.93 266.33L88.113 346.73L88.991 347.21L132.82 266.81z" stroke="none" fill="#000000" fill-rule="nonzero" /><g clip-path="url(#18)"><path id="84" transform="matrix(1 0 0 -1 0 540)" d="M332.45 226.86L211.62 266.1L211.62 266.1L332.45 305.33z" stroke="none" fill="#FFFFFF" fill-rule="evenodd" /></g><g clip-path="url(#19)"><path id="85" transform="matrix(1 0 0 -1 0 540)" d="M332.45 226.86L211.62 266.1L211.62 266.1L332.45 305.33z" stroke="#000000" stroke-width="2.039" fill="none" /></g><g clip-path="url(#20)"></g><g clip-path="url(#21)"></g><g clip-path="url(#22)"></g><g clip-path="url(#23)"></g><g clip-path="url(#24)"></g><g clip-path="url(#25)"></g><g clip-path="url(#26)"></g><g clip-path="url(#27)"></g><g clip-path="url(#28)"></g><g clip-path="url(#29)"><g transform="matrix(0.3601195 0 0 0.3615541 84.84 371.882)"><g transform="matrix(1 0 0 1 0 0)"><image x="0" y="0" xlink:href="img_40.png" width="921" height="231" /></g></g></g><g clip-path="url(#30)"></g><g clip-path="url(#31)"></g><g clip-path="url(#32)"></g><g clip-path="url(#33)"></g><g clip-path="url(#34)"><g transform="matrix(0.36 0 0 0.3609449 90.959 465.001)"><g transform="matrix(1 0 0 1 0 0)"><image x="0" y="0" xlink:href="img_41.png" width="451" height="127" /></g></g></g><g clip-path="url(#35)"></g><g clip-path="url(#36)"></g></g></g></svg>