<svg xmlns="http://www.w3.org/2000/svg" xmlns:xlink="http://www.w3.org/1999/xlink" id="body_32" preserveAspectRatio="xMinYMin meet" viewBox="0 0 960 720"><defs><clipPath id="1"><path id="" clip-rule="evenodd" transform="matrix(1 0 0 1 0 0)" d="M0 540L0 0L0 0L720 0L720 0L720 540L720 540L0 540z" /></clipPath><clipPath id="2"><path id="" clip-rule="evenodd" transform="matrix(1 0 0 1 0 0)" d="M0 539.9999L720 539.9999L720 539.9999L720 -0.0001220703L720 -0.0001220703L0 -0.0001220703z" /></clipPath><clipPath id="3"><path id="" clip-rule="evenodd" transform="matrix(1 0 0 1 0 0)" d="M1E-05 540L720 540L720 540L720 0L720 0L1E-05 0z" /></clipPath><clipPath id="4"><path id="" clip-rule="evenodd" transform="matrix(1 0 0 1 0 0)" d="M1E-05 540L720 540L720 540L720 0L720 0L1E-05 0z" /></clipPath><clipPath id="5"><path id="" clip-rule="evenodd" transform="matrix(1 0 0 1 0 0)" d="M1E-05 540L720 540L720 540L720 0L720 0L1E-05 0z" /></clipPath><clipPath id="6"><path id="" clip-rule="evenodd" transform="matrix(1 0 0 1 0 0)" d="M1E-05 0L720 0L720 0L720 540L720 540L0 540" /></clipPath><clipPath id="7"><path id="" clip-rule="evenodd" transform="matrix(1 0 0 1 0 0)" d="M1E-05 0L720 0L720 0L720 540L720 540L0 540" /></clipPath><clipPath id="8"><path id="" clip-rule="evenodd" transform="matrix(1 0 0 1 0 0)" d="M1E-05 540L720 540L720 540L720 0L720 0L1E-05 0z" /></clipPath><clipPath id="9"><path id="" clip-rule="evenodd" transform="matrix(1 0 0 1 0 0)" d="M1E-05 540L720 540L720 540L720 0L720 0L1E-05 0z" /></clipPath><clipPath id="10"><path id="" clip-rule="evenodd" transform="matrix(1 0 0 1 0 0)" d="M1E-05 540L720 540L720 540L720 0L720 0L1E-05 0z" /></clipPath><clipPath id="11"><path id="" clip-rule="evenodd" transform="matrix(1 0 0 1 0 0)" d="M1E-05 540L720 540L720 540L720 0L720 0L1E-05 0z" /></clipPath><clipPath id="12"><path id="" clip-rule="evenodd" transform="matrix(1 0 0 1 0 0)" d="M1E-05 540L720 540L720 540L720 0L720 0L1E-05 0z" /></clipPath><clipPath id="13"><path id="" clip-rule="evenodd" transform="matrix(1 0 0 1 0 0)" d="M1E-05 540L720 540L720 540L720 0L720 0L1E-05 0z" /></clipPath><clipPath id="14"><path id="" clip-rule="evenodd" transform="matrix(1 0 0 1 0 0)" d="M1E-05 540L720 540L720 540L720 0L720 0L1E-05 0z" /></clipPath><clipPath id="15"><path id="" clip-rule="evenodd" transform="matrix(1 0 0 1 0 0)" d="M1E-05 540L720 540L720 540L720 0L720 0L1E-05 0z" /></clipPath><clipPath id="16"><path id="" clip-rule="evenodd" transform="matrix(1 0 0 1 0 0)" d="M1E-05 540L720 540L720 540L720 0L720 0L1E-05 0z" /></clipPath><clipPath id="17"><path id="" clip-rule="evenodd" transform="matrix(1 0 0 1 0 0)" d="M1E-05 540L720 540L720 540L720 0L720 0L1E-05 0z" /></clipPath><clipPath id="18"><path id="" clip-rule="evenodd" transform="matrix(1 0 0 1 0 0)" d="M1E-05 540L720 540L720 540L720 0L720 0L1E-05 0z" /></clipPath><clipPath id="19"><path id="" clip-rule="evenodd" transform="matrix(1 0 0 1 0 0)" d="M1E-05 540L720 540L720 540L720 0L720 0L1E-05 0z" /></clipPath><clipPath id="20"><path id="" clip-rule="evenodd" transform="matrix(1 0 0 1 0 0)" d="M1E-05 540L720 540L720 540L720 0L720 0L1E-05 0z" /></clipPath><clipPath id="21"><path id="" clip-rule="evenodd" transform="matrix(1 0 0 1 0 0)" d="M1E-05 540L720 540L720 540L720 0L720 0L1E-05 0z" /></clipPath><clipPath id="22"><path id="" clip-rule="evenodd" transform="matrix(1 0 0 1 0 0)" d="M1E-05 540L720 540L720 540L720 0L720 0L1E-05 0z" /></clipPath><clipPath id="23"><path id="" clip-rule="evenodd" transform="matrix(1 0 0 1 0 0)" d="M1E-05 540L720 540L720 540L720 0L720 0L1E-05 0z" /></clipPath><clipPath id="24"><path id="" clip-rule="evenodd" transform="matrix(1 0 0 1 0 0)" d="M1E-05 0L720 0L720 0L720 540L720 540L0 540" /></clipPath><clipPath id="25"><path id="" clip-rule="evenodd" transform="matrix(1 0 0 1 0 0)" d="M1E-05 0L720 0L720 0L720 540L720 540L0 540" /></clipPath><clipPath id="26"><path id="" clip-rule="evenodd" transform="matrix(1 0 0 1 0 0)" d="M1E-05 540L720 540L720 540L720 0L720 0L1E-05 0z" /></clipPath><clipPath id="27"><path id="" clip-rule="evenodd" transform="matrix(1 0 0 1 0 0)" d="M1E-05 540L720 540L720 540L720 0L720 0L1E-05 0z" /></clipPath><clipPath id="28"><path id="" clip-rule="evenodd" transform="matrix(1 0 0 1 0 0)" d="M1E-05 540L720 540L720 540L720 0L720 0L1E-05 0z" /></clipPath><clipPath id="29"><path id="" clip-rule="evenodd" transform="matrix(1 0 0 1 0 0)" d="M1E-05 540L720 540L720 540L720 0L720 0L1E-05 0z" /></clipPath><clipPath id="30"><path id="" clip-rule="evenodd" transform="matrix(1 0 0 1 0 0)" d="M1E-05 540L720 540L720 540L720 0L720 0L1E-05 0z" /></clipPath><clipPath id="31"><path id="" clip-rule="evenodd" transform="matrix(1 0 0 1 0 0)" d="M1E-05 540L720 540L720 540L720 0L720 0L1E-05 0z" /></clipPath><clipPath id="32"><path id="" clip-rule="evenodd" transform="matrix(1 0 0 1 0 0)" d="M1E-05 540L720 540L720 540L720 0L720 0L1E-05 0z" /></clipPath></defs><g transform="matrix(1.333333 0 0 1.333333 0 0)"><g clip-path="url(#1)"><g clip-path="url(#2)"><path id="1" transform="matrix(1 0 0 -1 0 540)" d="M0 6E-05L720 6E-05L720 6E-05L720 540.0001L720 540.0001L0 540.0001z" stroke="none" fill="#FFFFFF" fill-rule="evenodd" /></g><g clip-path="url(#3)"></g><g clip-path="url(#4)"></g><path id="14" transform="matrix(1 0 0 -1 0 540)" d="M131.82 350.94L210.3 350.94L210.3 350.94L210.3 388.5L210.3 388.5L131.82 388.5z" stroke="none" fill="#FFFFFF" fill-rule="evenodd" /><path id="15" transform="matrix(1 0 0 -1 0 540)" d="M131.82 350.94L210.3 350.94L210.3 350.94L210.3 388.5L210.3 388.5L131.82 388.5z" stroke="#000000" stroke-width="2.039" fill="none" /><g clip-path="url(#5)"></g><path id="17" transform="matrix(1 0 0 -1 0 540)" d="M107.86 372.67L101.88 369.64L107.9 366.67zM131.75 370.33L106.88 370.17L106.88 369.17L131.75 369.33z" stroke="none" fill="#000000" fill-rule="nonzero" /><g clip-path="url(#6)"><path id="18" transform="matrix(1 0 0 -1 0 540)" d="M384.05 295.97L210.89 368.81L210.89 368.81L384.05 441.66z" stroke="none" fill="#FFFFFF" fill-rule="evenodd" /></g><g clip-path="url(#7)"><path id="19" transform="matrix(1 0 0 -1 0 540)" d="M384.05 295.97L210.89 368.81L210.89 368.81L384.05 441.66z" stroke="#000000" stroke-width="2.039" fill="none" /></g><g clip-path="url(#8)"></g><g clip-path="url(#9)"></g><g clip-path="url(#10)"></g><g clip-path="url(#11)"></g><g clip-path="url(#12)"></g><g clip-path="url(#13)"></g><g clip-path="url(#14)"></g><g clip-path="url(#15)"></g><g clip-path="url(#16)"></g><g clip-path="url(#17)"></g><g clip-path="url(#18)"></g><g clip-path="url(#19)"></g><g clip-path="url(#20)"></g><g clip-path="url(#21)"></g><g clip-path="url(#22)"></g><path id="187" transform="matrix(1 0 0 -1 0 540)" d="M132.41 247.73L210.89 247.73L210.89 247.73L210.89 285.29L210.89 285.29L132.41 285.29z" stroke="none" fill="#FFFFFF" fill-rule="evenodd" /><path id="188" transform="matrix(1 0 0 -1 0 540)" d="M132.41 247.73L210.89 247.73L210.89 247.73L210.89 285.29L210.89 285.29L132.41 285.29z" stroke="#000000" stroke-width="2.039" fill="none" /><g clip-path="url(#23)"></g><path id="191" transform="matrix(1 0 0 -1 0 540)" d="M86.398 344.66L86.159 351.35L91.665 347.52zM131.93 266.33L88.113 346.73L88.991 347.21L132.82 266.81z" stroke="none" fill="#000000" fill-rule="nonzero" /><g clip-path="url(#24)"><path id="192" transform="matrix(1 0 0 -1 0 540)" d="M332.45 226.86L211.62 266.1L211.62 266.1L332.45 305.33z" stroke="none" fill="#FFFFFF" fill-rule="evenodd" /></g><g clip-path="url(#25)"><path id="193" transform="matrix(1 0 0 -1 0 540)" d="M332.45 226.86L211.62 266.1L211.62 266.1L332.45 305.33z" stroke="#000000" stroke-width="2.039" fill="none" /></g><g clip-path="url(#26)"></g><g clip-path="url(#27)"></g><g clip-path="url(#28)"></g><g clip-path="url(#29)"></g><g clip-path="url(#30)"></g><g clip-path="url(#31)"></g><g clip-path="url(#32)"></g><path id="254" transform="matrix(1 0 0 -1 0 540)" d="M476.7 391.44L384 368.91" stroke="#4472C4" stroke-width="0.48" fill="none" /><path id="255" transform="matrix(1 0 0 -1 0 540)" d="M476.74 272.64L332.39 266.11" stroke="#4472C4" stroke-width="0.48" fill="none" /></g></g></svg>