<svg xmlns="http://www.w3.org/2000/svg" xmlns:xlink="http://www.w3.org/1999/xlink" id="body_13" preserveAspectRatio="xMinYMin meet" viewBox="0 0 960 720"><defs><clipPath id="1"><path id="" clip-rule="evenodd" transform="matrix(1 0 0 1 0 0)" d="M0 540L0 0L0 0L720 0L720 0L720 540L720 540L0 540z" /></clipPath><clipPath id="2"><path id="" clip-rule="evenodd" transform="matrix(1 0 0 1 0 0)" d="M0 539.9999L720 539.9999L720 539.9999L720 -0.0001220703L720 -0.0001220703L0 -0.0001220703z" /></clipPath><clipPath id="3"><path id="" clip-rule="evenodd" transform="matrix(1 0 0 1 0 0)" d="M1E-05 540L720 540L720 540L720 0L720 0L1E-05 0z" /></clipPath><clipPath id="4"><path id="" clip-rule="evenodd" transform="matrix(1 0 0 1 0 0)" d="M1E-05 540L720 540L720 540L720 0L720 0L1E-05 0z" /></clipPath><clipPath id="5"><path id="" clip-rule="evenodd" transform="matrix(1 0 0 1 0 0)" d="M1E-05 540L720 540L720 540L720 0L720 0L1E-05 0z" /></clipPath><clipPath id="6"><path id="" clip-rule="evenodd" transform="matrix(1 0 0 1 0 0)" d="M1E-05 540L720 540L720 540L720 0L720 0L1E-05 0z" /></clipPath><clipPath id="7"><path id="" clip-rule="evenodd" transform="matrix(1 0 0 1 0 0)" d="M1E-05 540L720 540L720 540L720 0L720 0L1E-05 0z" /></clipPath><clipPath id="8"><path id="" clip-rule="evenodd" transform="matrix(1 0 0 1 0 0)" d="M1E-05 540L720 540L720 540L720 0L720 0L1E-05 0z" /></clipPath><clipPath id="9"><path id="" clip-rule="evenodd" transform="matrix(1 0 0 1 0 0)" d="M1E-05 540L720 540L720 540L720 0L720 0L1E-05 0z" /></clipPath><clipPath id="10"><path id="" clip-rule="evenodd" transform="matrix(1 0 0 1 0 0)" d="M1E-05 540L720 540L720 540L720 0L720 0L1E-05 0z" /></clipPath><clipPath id="11"><path id="" clip-rule="evenodd" transform="matrix(1 0 0 1 0 0)" d="M1E-05 540L720 540L720 540L720 0L720 0L1E-05 0z" /></clipPath><clipPath id="12"><path id="" clip-rule="evenodd" transform="matrix(1 0 0 1 0 0)" d="M1E-05 540L720 540L720 540L720 0L720 0L1E-05 0z" /></clipPath><clipPath id="13"><path id="" clip-rule="evenodd" transform="matrix(1 0 0 1 0 0)" d="M1E-05 540L720 540L720 540L720 0L720 0L1E-05 0z" /></clipPath><clipPath id="14"><path id="" clip-rule="evenodd" transform="matrix(1 0 0 1 0 0)" d="M1E-05 540L720 540L720 540L720 0L720 0L1E-05 0z" /></clipPath><clipPath id="15"><path id="" clip-rule="evenodd" transform="matrix(1 0 0 1 0 0)" d="M1E-05 540L720 540L720 540L720 0L720 0L1E-05 0z" /></clipPath><clipPath id="16"><path id="" clip-rule="evenodd" transform="matrix(1 0 0 1 0 0)" d="M1E-05 540L720 540L720 540L720 0L720 0L1E-05 0z" /></clipPath><clipPath id="17"><path id="" clip-rule="evenodd" transform="matrix(1 0 0 1 0 0)" d="M1E-05 540L720 540L720 540L720 0L720 0L1E-05 0z" /></clipPath><clipPath id="18"><path id="" clip-rule="evenodd" transform="matrix(1 0 0 1 0 0)" d="M1E-05 540L720 540L720 540L720 0L720 0L1E-05 0z" /></clipPath><clipPath id="19"><path id="" clip-rule="evenodd" transform="matrix(1 0 0 1 0 0)" d="M1E-05 540L720 540L720 540L720 0L720 0L1E-05 0z" /></clipPath><clipPath id="20"><path id="" clip-rule="evenodd" transform="matrix(1 0 0 1 0 0)" d="M1E-05 540L720 540L720 540L720 0L720 0L1E-05 0z" /></clipPath><clipPath id="21"><path id="" clip-rule="evenodd" transform="matrix(1 0 0 1 0 0)" d="M1E-05 540L720 540L720 540L720 0L720 0L1E-05 0z" /></clipPath><clipPath id="22"><path id="" clip-rule="evenodd" transform="matrix(1 0 0 1 0 0)" d="M1E-05 540L720 540L720 540L720 0L720 0L1E-05 0z" /></clipPath></defs><g transform="matrix(1.333333 0 0 1.333333 0 0)"><g clip-path="url(#1)"><g clip-path="url(#2)"><path id="1" transform="matrix(1 0 0 -1 0 540)" d="M0 6E-05L720 6E-05L720 6E-05L720 540.0001L720 540.0001L0 540.0001z" stroke="none" fill="#FFFFFF" fill-rule="evenodd" /></g><g clip-path="url(#3)"></g><g clip-path="url(#4)"></g><g clip-path="url(#5)"></g><g clip-path="url(#6)"></g><g clip-path="url(#7)"></g><g clip-path="url(#8)"></g><g clip-path="url(#9)"></g><g clip-path="url(#10)"></g><g clip-path="url(#11)"></g><g clip-path="url(#12)"></g><g clip-path="url(#13)"></g><g clip-path="url(#14)"></g><g clip-path="url(#15)"></g><path id="241" transform="matrix(1 0 0 -1 0 540)" d="M243.53 278.1L322.01 278.1L322.01 278.1L322.01 315.66L322.01 315.66L243.53 315.66z" stroke="none" fill="#FFFFFF" fill-rule="evenodd" /><path id="242" transform="matrix(1 0 0 -1 0 540)" d="M243.53 278.1L322.01 278.1L322.01 278.1L322.01 315.66L322.01 315.66L243.53 315.66z" stroke="#000000" stroke-width="2.039" fill="none" /><g clip-path="url(#16)"></g><g clip-path="url(#17)"></g><g clip-path="url(#18)"></g><path id="250" transform="matrix(1 0 0 -1 0 540)" d="M142.25 278.1L220.73 278.1L220.73 278.1L220.73 315.66L220.73 315.66L142.25 315.66z" stroke="none" fill="#FFFFFF" fill-rule="evenodd" /><path id="251" transform="matrix(1 0 0 -1 0 540)" d="M142.25 278.1L220.73 278.1L220.73 278.1L220.73 315.66L220.73 315.66L142.25 315.66z" stroke="#000000" stroke-width="2.039" fill="none" /><g clip-path="url(#19)"></g><g clip-path="url(#20)"></g><path id="258" transform="matrix(1 0 0 -1 0 540)" d="M243.53 221.82L322.01 221.82L322.01 221.82L322.01 259.38L322.01 259.38L243.53 259.38z" stroke="none" fill="#FFFFFF" fill-rule="evenodd" /><path id="259" transform="matrix(1 0 0 -1 0 540)" d="M243.53 221.82L322.01 221.82L322.01 221.82L322.01 259.38L322.01 259.38L243.53 259.38z" stroke="#000000" stroke-width="2.039" fill="none" /><g clip-path="url(#21)"></g><g clip-path="url(#22)"></g><path id="266" transform="matrix(1 0 0 -1 0 540)" d="M118.3 299.83L112.31 296.79L118.34 293.83zM142.19 297.5L117.31 297.32L117.31 296.32L142.19 296.5z" stroke="none" fill="#000000" fill-rule="nonzero" /><path id="267" transform="matrix(1 0 0 -1 0 540)" d="M226.68 300L220.68 297L226.68 294zM243.47 297.5L225.68 297.5L225.68 296.5L243.47 296.5z" stroke="none" fill="#000000" fill-rule="nonzero" /><path id="268" transform="matrix(1 0 0 -1 0 540)" d="M221.19 271.94L220.68 278.64L226.33 275.04zM243.03 240.39L222.82 274.1L223.68 274.61L243.89 240.9z" stroke="none" fill="#000000" fill-rule="nonzero" /></g></g></svg>