<svg xmlns="http://www.w3.org/2000/svg" xmlns:xlink="http://www.w3.org/1999/xlink" id="body_8" preserveAspectRatio="xMinYMin meet" viewBox="0 0 960 720"><defs><clipPath id="1"><path id="" clip-rule="evenodd" transform="matrix(1 0 0 1 0 0)" d="M0 540L0 0L0 0L720 0L720 0L720 540L720 540L0 540z" /></clipPath><clipPath id="2"><path id="" clip-rule="evenodd" transform="matrix(1 0 0 1 0 0)" d="M0 539.9999L720 539.9999L720 539.9999L720 -0.0001220703L720 -0.0001220703L0 -0.0001220703z" /></clipPath><clipPath id="3"><path id="" clip-rule="evenodd" transform="matrix(1 0 0 1 0 0)" d="M1E-05 540L720 540L720 540L720 0L720 0L1E-05 0z" /></clipPath><clipPath id="4"><path id="" clip-rule="evenodd" transform="matrix(1 0 0 1 0 0)" d="M1E-05 540L720 540L720 540L720 0L720 0L1E-05 0z" /></clipPath><clipPath id="5"><path id="" clip-rule="evenodd" transform="matrix(1 0 0 1 0 0)" d="M1E-05 540L720 540L720 540L720 0L720 0L1E-05 0z" /></clipPath><clipPath id="6"><path id="" clip-rule="evenodd" transform="matrix(1 0 0 1 0 0)" d="M1E-05 540L720 540L720 540L720 0L720 0L1E-05 0z" /></clipPath><clipPath id="7"><path id="" clip-rule="evenodd" transform="matrix(1 0 0 1 0 0)" d="M1E-05 540L720 540L720 540L720 0L720 0L1E-05 0z" /></clipPath><clipPath id="8"><path id="" clip-rule="evenodd" transform="matrix(1 0 0 1 0 0)" d="M1E-05 540L720 540L720 540L720 0L720 0L1E-05 0z" /></clipPath><clipPath id="9"><path id="" clip-rule="evenodd" transform="matrix(1 0 0 1 0 0)" d="M1E-05 540L720 540L720 540L720 0L720 0L1E-05 0z" /></clipPath><clipPath id="10"><path id="" clip-rule="evenodd" transform="matrix(1 0 0 1 0 0)" d="M1E-05 540L720 540L720 540L720 0L720 0L1E-05 0z" /></clipPath><clipPath id="11"><path id="" clip-rule="evenodd" transform="matrix(1 0 0 1 0 0)" d="M1E-05 540L720 540L720 540L720 0L720 0L1E-05 0z" /></clipPath><clipPath id="12"><path id="" clip-rule="evenodd" transform="matrix(1 0 0 1 0 0)" d="M1E-05 540L720 540L720 540L720 0L720 0L1E-05 0z" /></clipPath><clipPath id="13"><path id="" clip-rule="evenodd" transform="matrix(1 0 0 1 0 0)" d="M1E-05 540L720 540L720 540L720 0L720 0L1E-05 0z" /></clipPath><clipPath id="14"><path id="" clip-rule="evenodd" transform="matrix(1 0 0 1 0 0)" d="M1E-05 540L720 540L720 540L720 0L720 0L1E-05 0z" /></clipPath><clipPath id="15"><path id="" clip-rule="evenodd" transform="matrix(1 0 0 1 0 0)" d="M1E-05 540L720 540L720 540L720 0L720 0L1E-05 0z" /></clipPath><clipPath id="16"><path id="" clip-rule="evenodd" transform="matrix(1 0 0 1 0 0)" d="M0 0L720 0L720 0L720 540L720 540L-1E-05 540" /></clipPath><clipPath id="17"><path id="" clip-rule="evenodd" transform="matrix(1 0 0 1 0 0)" d="M0 0L720 0L720 0L720 540L720 540L-1E-05 540" /></clipPath><clipPath id="18"><path id="" clip-rule="evenodd" transform="matrix(1 0 0 1 0 0)" d="M1E-05 540L720 540L720 540L720 0L720 0L1E-05 0z" /></clipPath><clipPath id="19"><path id="" clip-rule="evenodd" transform="matrix(1 0 0 1 0 0)" d="M0 0L720 0L720 0L720 540L720 540L-1E-05 540" /></clipPath><clipPath id="20"><path id="" clip-rule="evenodd" transform="matrix(1 0 0 1 0 0)" d="M0 0L720 0L720 0L720 540L720 540L-1E-05 540" /></clipPath><clipPath id="21"><path id="" clip-rule="evenodd" transform="matrix(1 0 0 1 0 0)" d="M1E-05 540L720 540L720 540L720 0L720 0L1E-05 0z" /></clipPath><clipPath id="22"><path id="" clip-rule="evenodd" transform="matrix(1 0 0 1 0 0)" d="M1E-05 0L720 0L720 0L720 540L720 540L-2E-05 540" /></clipPath><clipPath id="23"><path id="" clip-rule="evenodd" transform="matrix(1 0 0 1 0 0)" d="M1E-05 0L720 0L720 0L720 540L720 540L-2E-05 540" /></clipPath><clipPath id="24"><path id="" clip-rule="evenodd" transform="matrix(1 0 0 1 0 0)" d="M1E-05 540L720 540L720 540L720 0L720 0L1E-05 0z" /></clipPath><clipPath id="25"><path id="" clip-rule="evenodd" transform="matrix(1 0 0 1 0 0)" d="M2E-05 0L720 0L720 0L720 540L720 540L-1E-05 540" /></clipPath><clipPath id="26"><path id="" clip-rule="evenodd" transform="matrix(1 0 0 1 0 0)" d="M2E-05 0L720 0L720 0L720 540L720 540L-1E-05 540" /></clipPath><clipPath id="27"><path id="" clip-rule="evenodd" transform="matrix(1 0 0 1 0 0)" d="M1E-05 540L720 540L720 540L720 0L720 0L1E-05 0z" /></clipPath><clipPath id="28"><path id="" clip-rule="evenodd" transform="matrix(1 0 0 1 0 0)" d="M1E-05 0L720 0L720 0L720 540L720 540L-2E-05 540" /></clipPath><clipPath id="29"><path id="" clip-rule="evenodd" transform="matrix(1 0 0 1 0 0)" d="M1E-05 0L720 0L720 0L720 540L720 540L-2E-05 540" /></clipPath><clipPath id="30"><path id="" clip-rule="evenodd" transform="matrix(1 0 0 1 0 0)" d="M1E-05 540L720 540L720 540L720 0L720 0L1E-05 0z" /></clipPath><clipPath id="31"><path id="" clip-rule="evenodd" transform="matrix(1 0 0 1 0 0)" d="M0 0L720 0L720 0L720 540L720 540L-3E-05 540" /></clipPath><clipPath id="32"><path id="" clip-rule="evenodd" transform="matrix(1 0 0 1 0 0)" d="M0 0L720 0L720 0L720 540L720 540L-3E-05 540" /></clipPath><clipPath id="33"><path id="" clip-rule="evenodd" transform="matrix(1 0 0 1 0 0)" d="M1E-05 540L720 540L720 540L720 0L720 0L1E-05 0z" /></clipPath><clipPath id="34"><path id="" clip-rule="evenodd" transform="matrix(1 0 0 1 0 0)" d="M1E-05 540L720 540L720 540L720 0L720 0L1E-05 0z" /></clipPath><clipPath id="35"><path id="" clip-rule="evenodd" transform="matrix(1 0 0 1 0 0)" d="M1E-05 540L720 540L720 540L720 0L720 0L1E-05 0z" /></clipPath><clipPath id="36"><path id="" clip-rule="evenodd" transform="matrix(1 0 0 1 0 0)" d="M1E-05 540L720 540L720 540L720 0L720 0L1E-05 0z" /></clipPath><clipPath id="37"><path id="" clip-rule="evenodd" transform="matrix(1 0 0 1 0 0)" d="M1E-05 540L720 540L720 540L720 0L720 0L1E-05 0z" /></clipPath><clipPath id="38"><path id="" clip-rule="evenodd" transform="matrix(1 0 0 1 0 0)" d="M1E-05 540L720 540L720 540L720 0L720 0L1E-05 0z" /></clipPath><clipPath id="39"><path id="" clip-rule="evenodd" transform="matrix(1 0 0 1 0 0)" d="M1E-05 540L720 540L720 540L720 0L720 0L1E-05 0z" /></clipPath><clipPath id="40"><path id="" clip-rule="evenodd" transform="matrix(1 0 0 1 0 0)" d="M1E-05 540L720 540L720 540L720 0L720 0L1E-05 0z" /></clipPath></defs><g transform="matrix(1.333333 0 0 1.333333 0 0)"><g clip-path="url(#1)"><g clip-path="url(#2)"><path id="1" transform="matrix(1 0 0 -1 0 540)" d="M0 6E-05L720 6E-05L720 6E-05L720 540.0001L720 540.0001L0 540.0001z" stroke="none" fill="#FFFFFF" fill-rule="evenodd" /></g><g clip-path="url(#3)"></g><g clip-path="url(#4)"></g><path id="26" transform="matrix(1 0 0 -1 0 540)" d="M224.93 270.89L303.41 270.89L303.41 270.89L303.41 308.45L303.41 308.45L224.93 308.45z" stroke="none" fill="#FFFFFF" fill-rule="evenodd" /><path id="27" transform="matrix(1 0 0 -1 0 540)" d="M224.93 270.89L303.41 270.89L303.41 270.89L303.41 308.45L303.41 308.45L224.93 308.45z" stroke="#000000" stroke-width="2.039" fill="none" /><g clip-path="url(#5)"></g><g clip-path="url(#6)"></g><g clip-path="url(#7)"></g><path id="35" transform="matrix(1 0 0 -1 0 540)" d="M123.65 270.89L202.13 270.89L202.13 270.89L202.13 308.45L202.13 308.45L123.65 308.45z" stroke="none" fill="#FFFFFF" fill-rule="evenodd" /><path id="36" transform="matrix(1 0 0 -1 0 540)" d="M123.65 270.89L202.13 270.89L202.13 270.89L202.13 308.45L202.13 308.45L123.65 308.45z" stroke="#000000" stroke-width="2.039" fill="none" /><g clip-path="url(#8)"></g><g clip-path="url(#9)"></g><path id="43" transform="matrix(1 0 0 -1 0 540)" d="M99.699 292.51L93.719 289.47L99.739 286.51zM123.58 290.17L98.717 290.01L98.722 289.01L123.58 289.17z" stroke="none" fill="#000000" fill-rule="nonzero" /><path id="44" transform="matrix(1 0 0 -1 0 540)" d="M208.08 292.67L202.08 289.67L208.08 286.67zM224.87 290.17L207.08 290.17L207.08 289.17L224.87 289.17z" stroke="none" fill="#000000" fill-rule="nonzero" /><path id="45" transform="matrix(1 0 0 -1 0 540)" d="M410.61 292.75L404.64 289.71L410.66 286.75zM434.47 290.41L409.64 290.24L409.64 289.24L434.48 289.41z" stroke="none" fill="#000000" fill-rule="nonzero" /><path id="46" transform="matrix(1 0 0 -1 0 540)" d="M326.22 270.89L404.7 270.89L404.7 270.89L404.7 308.45L404.7 308.45L326.22 308.45z" stroke="none" fill="#FFFFFF" fill-rule="evenodd" /><path id="47" transform="matrix(1 0 0 -1 0 540)" d="M326.22 270.89L404.7 270.89L404.7 270.89L404.7 308.45L404.7 308.45L326.22 308.45z" stroke="#000000" stroke-width="2.039" fill="none" /><g clip-path="url(#10)"></g><path id="54" transform="matrix(1 0 0 -1 0 540)" d="M309.35 292.67L303.35 289.67L309.35 286.67zM326.14 290.17L308.35 290.17L308.35 289.17L326.14 289.17z" stroke="none" fill="#000000" fill-rule="nonzero" /><path id="55" transform="matrix(1 0 0 -1 0 540)" d="M491.57 271.26L569.93 271.26L569.93 271.26L569.93 308.82L569.93 308.82L491.57 308.82z" stroke="none" fill="#FFFFFF" fill-rule="evenodd" /><path id="56" transform="matrix(1 0 0 -1 0 540)" d="M491.57 271.26L569.93 271.26L569.93 271.26L569.93 308.82L569.93 308.82L491.57 308.82z" stroke="#000000" stroke-width="2.039" fill="none" /><g clip-path="url(#11)"></g><g clip-path="url(#12)"></g><g clip-path="url(#13)"></g><path id="65" transform="matrix(1 0 0 -1 0 540)" d="M471.81 293.01L465.83 289.95L471.85 287.01zM491.5 290.66L470.83 290.5L470.83 289.5L491.51 289.66z" stroke="none" fill="#000000" fill-rule="nonzero" /><g clip-path="url(#14)"></g><path id="67" transform="matrix(1 0 0 -1 0 540)" d="M595.61 271.61L674.09 271.61L674.09 271.61L674.09 309.29L674.09 309.29L595.61 309.29z" stroke="none" fill="#FFFFFF" fill-rule="evenodd" /><path id="68" transform="matrix(1 0 0 -1 0 540)" d="M595.61 271.61L674.09 271.61L674.09 271.61L674.09 309.29L674.09 309.29L595.61 309.29z" stroke="#000000" stroke-width="2.039" fill="none" /><g clip-path="url(#15)"></g><path id="75" transform="matrix(1 0 0 -1 0 540)" d="M575.83 293.2L569.88 290.11L575.93 287.21zM595.53 291.01L574.86 290.69L574.89 289.69L595.54 290.01z" stroke="none" fill="#000000" fill-rule="nonzero" /><g clip-path="url(#16)"><path id="76" transform="matrix(1 0 0 -1 0 540)" d="M337.61 326.22L224.93 353.7L224.93 353.7L337.61 381.17z" stroke="none" fill="#FFFFFF" fill-rule="evenodd" /></g><g clip-path="url(#17)"><path id="77" transform="matrix(1 0 0 -1 0 540)" d="M337.61 326.22L224.93 353.7L224.93 353.7L337.61 381.17z" stroke="#000000" stroke-width="2.039" fill="none" /></g><g clip-path="url(#18)"></g><g clip-path="url(#19)"><path id="82" transform="matrix(1 0 0 -1 0 540)" d="M281.81 185.82L186.18 213.3L186.18 213.3L281.81 240.77z" stroke="none" fill="#FFFFFF" fill-rule="evenodd" /></g><g clip-path="url(#20)"><path id="83" transform="matrix(1 0 0 -1 0 540)" d="M281.81 185.82L186.18 213.3L186.18 213.3L281.81 240.77z" stroke="#000000" stroke-width="2.039" fill="none" /></g><g clip-path="url(#21)"></g><g clip-path="url(#22)"><path id="88" transform="matrix(1 0 0 -1 0 540)" d="M448.14 191.69L335.45 219.23L335.45 219.23L448.14 246.77z" stroke="none" fill="#FFFFFF" fill-rule="evenodd" /></g><g clip-path="url(#23)"><path id="89" transform="matrix(1 0 0 -1 0 540)" d="M448.14 191.69L335.45 219.23L335.45 219.23L448.14 246.77z" stroke="#000000" stroke-width="2.039" fill="none" /></g><g clip-path="url(#24)"></g><g clip-path="url(#25)"><path id="94" transform="matrix(1 0 0 -1 0 540)" d="M506.22 322.61L415.01 350.1L415.01 350.1L506.22 377.57z" stroke="none" fill="#FFFFFF" fill-rule="evenodd" /></g><g clip-path="url(#26)"><path id="95" transform="matrix(1 0 0 -1 0 540)" d="M506.22 322.61L415.01 350.1L415.01 350.1L506.22 377.57z" stroke="#000000" stroke-width="2.039" fill="none" /></g><g clip-path="url(#27)"></g><g clip-path="url(#28)"><path id="100" transform="matrix(1 0 0 -1 0 540)" d="M509.33 381.17L418.14 408.72L418.14 408.72L509.33 436.26z" stroke="none" fill="#FFFFFF" fill-rule="evenodd" /></g><g clip-path="url(#29)"><path id="101" transform="matrix(1 0 0 -1 0 540)" d="M509.33 381.17L418.14 408.72L418.14 408.72L509.33 436.26z" stroke="#000000" stroke-width="2.039" fill="none" /></g><g clip-path="url(#30)"></g><path id="106" transform="matrix(1 0 0 -1 0 540)" d="M200.87 315.98L200.63 309.27L206.13 313.11zM224.4 354L202.58 313.91L203.47 313.42L225.27 353.51z" stroke="none" fill="#000000" fill-rule="nonzero" /><path id="107" transform="matrix(1 0 0 -1 0 540)" d="M162.3 264.27L162.83 270.95L167.87 266.51zM185.68 213.2L164.25 266.14L165.18 266.51L186.61 213.58z" stroke="none" fill="#000000" fill-rule="nonzero" /><path id="108" transform="matrix(1 0 0 -1 0 540)" d="M267.22 265.01L264.11 270.95L270.74 269.86zM335.07 218.91L267.87 267.61L268.45 268.42L335.67 219.72z" stroke="none" fill="#000000" fill-rule="nonzero" /><path id="109" transform="matrix(1 0 0 -1 0 540)" d="M401.79 316.29L402.95 309.69L407.54 314.58zM414.45 350.29L403.89 314.63L404.85 314.33L415.41 350.01z" stroke="none" fill="#000000" fill-rule="nonzero" /><path id="110" transform="matrix(1 0 0 -1 0 540)" d="M365.52 315.24L365.39 308.52L370.83 312.44zM417.61 409.07L367.27 313.19L368.17 312.72L418.48 408.61z" stroke="none" fill="#000000" fill-rule="nonzero" /><g clip-path="url(#31)"><path id="111" transform="matrix(1 0 0 -1 0 540)" d="M588.53 199.02L497.33 226.55L497.33 226.55L588.53 254.1z" stroke="none" fill="#FFFFFF" fill-rule="evenodd" /></g><g clip-path="url(#32)"><path id="112" transform="matrix(1 0 0 -1 0 540)" d="M588.53 199.02L497.33 226.55L497.33 226.55L588.53 254.1z" stroke="#000000" stroke-width="2.039" fill="none" /></g><g clip-path="url(#33)"></g><path id="117" transform="matrix(1 0 0 -1 0 540)" d="M452.37 265.35L450.11 271.67L456.52 269.69zM496.86 226.18L453.37 267.85L454.07 268.57L497.57 226.89z" stroke="none" fill="#000000" fill-rule="nonzero" /><g clip-path="url(#34)"></g><g clip-path="url(#35)"></g><g clip-path="url(#36)"></g><g clip-path="url(#37)"></g><g clip-path="url(#38)"></g><g clip-path="url(#39)"></g><g clip-path="url(#40)"></g><path id="231" transform="matrix(1 0 0 -1 0 540)" d="M626.76 363.11L634.79 309.27" stroke="#4472C4" stroke-width="0.48" fill="none" /></g></g></svg>