<svg xmlns="http://www.w3.org/2000/svg" xmlns:xlink="http://www.w3.org/1999/xlink" id="body_27" preserveAspectRatio="xMinYMin meet" viewBox="0 0 960 720"><defs><clipPath id="1"><path id="" clip-rule="evenodd" transform="matrix(1 0 0 1 0 0)" d="M0 540L0 0L0 0L720 0L720 0L720 540L720 540L0 540z" /></clipPath><clipPath id="2"><path id="" clip-rule="evenodd" transform="matrix(1 0 0 1 0 0)" d="M0 539.9999L720 539.9999L720 539.9999L720 -0.0001220703L720 -0.0001220703L0 -0.0001220703z" /></clipPath><clipPath id="3"><path id="" clip-rule="evenodd" transform="matrix(1 0 0 1 0 0)" d="M1E-05 540L720 540L720 540L720 0L720 0L1E-05 0z" /></clipPath><clipPath id="4"><path id="" clip-rule="evenodd" transform="matrix(1 0 0 1 0 0)" d="M1E-05 540L720 540L720 540L720 0L720 0L1E-05 0z" /></clipPath><clipPath id="5"><path id="" clip-rule="evenodd" transform="matrix(1 0 0 1 0 0)" d="M1E-05 540L720 540L720 540L720 0L720 0L1E-05 0z" /></clipPath><clipPath id="6"><path id="" clip-rule="evenodd" transform="matrix(1 0 0 1 0 0)" d="M1E-05 540L720 540L720 540L720 0L720 0L1E-05 0z" /></clipPath><clipPath id="7"><path id="" clip-rule="evenodd" transform="matrix(1 0 0 1 0 0)" d="M1E-05 540L720 540L720 540L720 0L720 0L1E-05 0z" /></clipPath><clipPath id="8"><path id="" clip-rule="evenodd" transform="matrix(1 0 0 1 0 0)" d="M1E-05 540L720 540L720 540L720 0L720 0L1E-05 0z" /></clipPath><clipPath id="9"><path id="" clip-rule="evenodd" transform="matrix(1 0 0 1 0 0)" d="M1E-05 540L720 540L720 540L720 0L720 0L1E-05 0z" /></clipPath><clipPath id="10"><path id="" clip-rule="evenodd" transform="matrix(1 0 0 1 0 0)" d="M1E-05 540L720 540L720 540L720 0L720 0L1E-05 0z" /></clipPath><clipPath id="11"><path id="" clip-rule="evenodd" transform="matrix(1 0 0 1 0 0)" d="M1E-05 540L720 540L720 540L720 0L720 0L1E-05 0z" /></clipPath><clipPath id="12"><path id="" clip-rule="evenodd" transform="matrix(1 0 0 1 0 0)" d="M1E-05 540L720 540L720 540L720 0L720 0L1E-05 0z" /></clipPath><clipPath id="13"><path id="" clip-rule="evenodd" transform="matrix(1 0 0 1 0 0)" d="M1E-05 540L720 540L720 540L720 0L720 0L1E-05 0z" /></clipPath><clipPath id="14"><path id="" clip-rule="evenodd" transform="matrix(1 0 0 1 0 0)" d="M1E-05 540L720 540L720 540L720 0L720 0L1E-05 0z" /></clipPath><clipPath id="15"><path id="" clip-rule="evenodd" transform="matrix(1 0 0 1 0 0)" d="M1E-05 540L720 540L720 540L720 0L720 0L1E-05 0z" /></clipPath><clipPath id="16"><path id="" clip-rule="evenodd" transform="matrix(1 0 0 1 0 0)" d="M1E-05 540L720 540L720 540L720 0L720 0L1E-05 0z" /></clipPath><clipPath id="17"><path id="" clip-rule="evenodd" transform="matrix(1 0 0 1 0 0)" d="M1E-05 540L720 540L720 540L720 0L720 0L1E-05 0z" /></clipPath><clipPath id="18"><path id="" clip-rule="evenodd" transform="matrix(1 0 0 1 0 0)" d="M1E-05 540L720 540L720 540L720 0L720 0L1E-05 0z" /></clipPath><clipPath id="19"><path id="" clip-rule="evenodd" transform="matrix(1 0 0 1 0 0)" d="M1E-05 540L720 540L720 540L720 0L720 0L1E-05 0z" /></clipPath><clipPath id="20"><path id="" clip-rule="evenodd" transform="matrix(1 0 0 1 0 0)" d="M1E-05 540L720 540L720 540L720 0L720 0L1E-05 0z" /></clipPath><clipPath id="21"><path id="" clip-rule="evenodd" transform="matrix(1 0 0 1 0 0)" d="M1E-05 540L720 540L720 540L720 0L720 0L1E-05 0z" /></clipPath><clipPath id="22"><path id="" clip-rule="evenodd" transform="matrix(1 0 0 1 0 0)" d="M1E-05 540L720 540L720 540L720 0L720 0L1E-05 0z" /></clipPath><clipPath id="23"><path id="" clip-rule="evenodd" transform="matrix(1 0 0 1 0 0)" d="M1E-05 540L720 540L720 540L720 0L720 0L1E-05 0z" /></clipPath><clipPath id="24"><path id="" clip-rule="evenodd" transform="matrix(1 0 0 1 0 0)" d="M1E-05 540L720 540L720 540L720 0L720 0L1E-05 0z" /></clipPath><clipPath id="25"><path id="" clip-rule="evenodd" transform="matrix(1 0 0 1 0 0)" d="M1E-05 540L720 540L720 540L720 0L720 0L1E-05 0z" /></clipPath><clipPath id="26"><path id="" clip-rule="evenodd" transform="matrix(1 0 0 1 0 0)" d="M1E-05 540L720 540L720 540L720 0L720 0L1E-05 0z" /></clipPath><clipPath id="27"><path id="" clip-rule="evenodd" transform="matrix(1 0 0 1 0 0)" d="M1E-05 540L720 540L720 540L720 0L720 0L1E-05 0z" /></clipPath><clipPath id="28"><path id="" clip-rule="evenodd" transform="matrix(1 0 0 1 0 0)" d="M1E-05 540L720 540L720 540L720 0L720 0L1E-05 0z" /></clipPath><clipPath id="29"><path id="" clip-rule="evenodd" transform="matrix(1 0 0 1 0 0)" d="M1E-05 540L720 540L720 540L720 0L720 0L1E-05 0z" /></clipPath><clipPath id="30"><path id="" clip-rule="evenodd" transform="matrix(1 0 0 1 0 0)" d="M1E-05 540L720 540L720 540L720 0L720 0L1E-05 0z" /></clipPath><clipPath id="31"><path id="" clip-rule="evenodd" transform="matrix(1 0 0 1 0 0)" d="M1E-05 540L720 540L720 540L720 0L720 0L1E-05 0z" /></clipPath><clipPath id="32"><path id="" clip-rule="evenodd" transform="matrix(1 0 0 1 0 0)" d="M1E-05 540L720 540L720 540L720 0L720 0L1E-05 0z" /></clipPath><clipPath id="33"><path id="" clip-rule="evenodd" transform="matrix(1 0 0 1 0 0)" d="M1E-05 540L720 540L720 540L720 0L720 0L1E-05 0z" /></clipPath><clipPath id="34"><path id="" clip-rule="evenodd" transform="matrix(1 0 0 1 0 0)" d="M1E-05 540L720 540L720 540L720 0L720 0L1E-05 0z" /></clipPath><clipPath id="35"><path id="" clip-rule="evenodd" transform="matrix(1 0 0 1 0 0)" d="M1E-05 540L720 540L720 540L720 0L720 0L1E-05 0z" /></clipPath><clipPath id="36"><path id="" clip-rule="evenodd" transform="matrix(1 0 0 1 0 0)" d="M1E-05 540L720 540L720 540L720 0L720 0L1E-05 0z" /></clipPath><clipPath id="37"><path id="" clip-rule="evenodd" transform="matrix(1 0 0 1 0 0)" d="M1E-05 540L720 540L720 540L720 0L720 0L1E-05 0z" /></clipPath><clipPath id="38"><path id="" clip-rule="evenodd" transform="matrix(1 0 0 1 0 0)" d="M1E-05 540L720 540L720 540L720 0L720 0L1E-05 0z" /></clipPath><clipPath id="39"><path id="" clip-rule="evenodd" transform="matrix(1 0 0 1 0 0)" d="M1E-05 540L720 540L720 540L720 0L720 0L1E-05 0z" /></clipPath><clipPath id="40"><path id="" clip-rule="evenodd" transform="matrix(1 0 0 1 0 0)" d="M1E-05 540L720 540L720 540L720 0L720 0L1E-05 0z" /></clipPath><clipPath id="41"><path id="" clip-rule="evenodd" transform="matrix(1 0 0 1 0 0)" d="M1E-05 540L720 540L720 540L720 0L720 0L1E-05 0z" /></clipPath><clipPath id="42"><path id="" clip-rule="evenodd" transform="matrix(1 0 0 1 0 0)" d="M1E-05 540L720 540L720 540L720 0L720 0L1E-05 0z" /></clipPath><clipPath id="43"><path id="" clip-rule="evenodd" transform="matrix(1 0 0 1 0 0)" d="M1E-05 540L720 540L720 540L720 0L720 0L1E-05 0z" /></clipPath><clipPath id="44"><path id="" clip-rule="evenodd" transform="matrix(1 0 0 1 0 0)" d="M1E-05 540L720 540L720 540L720 0L720 0L1E-05 0z" /></clipPath></defs><g transform="matrix(1.333333 0 0 1.333333 0 0)"><g clip-path="url(#1)"><g clip-path="url(#2)"><path id="1" transform="matrix(1 0 0 -1 0 540)" d="M0 6E-05L720 6E-05L720 6E-05L720 540.0001L720 540.0001L0 540.0001z" stroke="none" fill="#FFFFFF" fill-rule="evenodd" /></g><path id="2" transform="matrix(1 0 0 -1 0 540)" d="M72.959 286.79L148.078 286.79L148.078 286.79L148.078 320.75L148.078 320.75L72.959 320.75z" stroke="none" fill="#FFC000" fill-rule="evenodd" /><path id="3" transform="matrix(1 0 0 -1 0 540)" d="M72.959 286.79L148.078 286.79L148.078 286.79L148.078 320.75L148.078 320.75L72.959 320.75z" stroke="#000000" stroke-width="0.96" fill="none" /><g clip-path="url(#3)"></g><path id="11" transform="matrix(1 0 0 -1 0 540)" d="M72.959 269.76L148.078 269.76L148.078 269.76L148.078 286.8L148.078 286.8L72.959 286.8z" stroke="none" fill="#70AD47" fill-rule="evenodd" /><path id="12" transform="matrix(1 0 0 -1 0 540)" d="M72.959 269.76L148.078 269.76L148.078 269.76L148.078 286.8L148.078 286.8L72.959 286.8z" stroke="#000000" stroke-width="0.96" fill="none" /><g clip-path="url(#4)"></g><path id="16" transform="matrix(1 0 0 -1 0 540)" d="M72.959 252.83L148.078 252.83L148.078 252.83L148.078 269.75L148.078 269.75L72.959 269.75z" stroke="none" fill="#70AD47" fill-rule="evenodd" /><path id="17" transform="matrix(1 0 0 -1 0 540)" d="M72.959 252.83L148.078 252.83L148.078 252.83L148.078 269.75L148.078 269.75L72.959 269.75z" stroke="#000000" stroke-width="0.96" fill="none" /><g clip-path="url(#5)"></g><path id="21" transform="matrix(1 0 0 -1 0 540)" d="M174 286.79L249 286.79L249 286.79L249 320.75L249 320.75L174 320.75z" stroke="none" fill="#FFC000" fill-rule="evenodd" /><path id="22" transform="matrix(1 0 0 -1 0 540)" d="M174 286.79L249 286.79L249 286.79L249 320.75L249 320.75L174 320.75z" stroke="#000000" stroke-width="0.96" fill="none" /><g clip-path="url(#6)"></g><path id="24" transform="matrix(1 0 0 -1 0 540)" d="M174 269.76L249 269.76L249 269.76L249 286.8L249 286.8L174 286.8z" stroke="none" fill="#70AD47" fill-rule="evenodd" /><path id="25" transform="matrix(1 0 0 -1 0 540)" d="M174 269.76L249 269.76L249 269.76L249 286.8L249 286.8L174 286.8z" stroke="#000000" stroke-width="0.96" fill="none" /><g clip-path="url(#7)"></g><path id="29" transform="matrix(1 0 0 -1 0 540)" d="M261.95 200.63L337.069 200.63L337.069 200.63L337.069 234.59L337.069 234.59L261.95 234.59z" stroke="none" fill="#FFFFFF" fill-rule="evenodd" /><path id="30" transform="matrix(1 0 0 -1 0 540)" d="M261.95 200.63L337.069 200.63L337.069 200.63L337.069 234.59L337.069 234.59L261.95 234.59z" stroke="#000000" stroke-width="0.96" fill="none" /><g clip-path="url(#8)"></g><path id="32" transform="matrix(1 0 0 -1 0 540)" d="M261.95 183.72L337.069 183.72L337.069 183.72L337.069 200.64L337.069 200.64L261.95 200.64z" stroke="none" fill="#C00000" fill-rule="evenodd" /><path id="33" transform="matrix(1 0 0 -1 0 540)" d="M261.95 183.72L337.069 183.72L337.069 183.72L337.069 200.64L337.069 200.64L261.95 200.64z" stroke="#000000" stroke-width="0.96" fill="none" /><g clip-path="url(#9)"></g><path id="37" transform="matrix(1 0 0 -1 0 540)" d="M261.95 166.68L337.069 166.68L337.069 166.68L337.069 183.72L337.069 183.72L261.95 183.72z" stroke="none" fill="#70AD47" fill-rule="evenodd" /><path id="38" transform="matrix(1 0 0 -1 0 540)" d="M261.95 166.68L337.069 166.68L337.069 166.68L337.069 183.72L337.069 183.72L261.95 183.72z" stroke="#000000" stroke-width="0.96" fill="none" /><g clip-path="url(#10)"></g><path id="42" transform="matrix(1 0 0 -1 0 540)" d="M475.55 359.39L550.669 359.39L550.669 359.39L550.669 393.35L550.669 393.35L475.55 393.35z" stroke="none" fill="#FFFFFF" fill-rule="evenodd" /><path id="43" transform="matrix(1 0 0 -1 0 540)" d="M475.55 359.39L550.669 359.39L550.669 359.39L550.669 393.35L550.669 393.35L475.55 393.35z" stroke="#000000" stroke-width="0.96" fill="none" /><g clip-path="url(#11)"></g><path id="45" transform="matrix(1 0 0 -1 0 540)" d="M475.55 346.79L550.669 346.79L550.669 346.79L550.669 363.83L550.669 363.83L475.55 363.83z" stroke="none" fill="#C00000" fill-rule="evenodd" /><path id="46" transform="matrix(1 0 0 -1 0 540)" d="M475.55 346.79L550.669 346.79L550.669 346.79L550.669 363.83L550.669 363.83L475.55 363.83z" stroke="#000000" stroke-width="0.96" fill="none" /><g clip-path="url(#12)"></g><path id="50" transform="matrix(1 0 0 -1 0 540)" d="M295.44 286.79L334.44 286.79L334.44 286.79L334.44 320.75L334.44 320.75L295.44 320.75z" stroke="none" fill="#FFC000" fill-rule="evenodd" /><path id="51" transform="matrix(1 0 0 -1 0 540)" d="M295.44 286.79L334.44 286.79L334.44 286.79L334.44 320.75L334.44 320.75L295.44 320.75z" stroke="#000000" stroke-width="0.96" fill="none" /><g clip-path="url(#13)"></g><path id="53" transform="matrix(1 0 0 -1 0 540)" d="M358.55 359.39L397.43 359.39L397.43 359.39L397.43 393.35L397.43 393.35L358.55 393.35z" stroke="none" fill="#FFFFFF" fill-rule="evenodd" /><path id="54" transform="matrix(1 0 0 -1 0 540)" d="M358.55 359.39L397.43 359.39L397.43 359.39L397.43 393.35L397.43 393.35L358.55 393.35z" stroke="#000000" stroke-width="0.96" fill="none" /><g clip-path="url(#14)"></g><path id="56" transform="matrix(1 0 0 -1 0 540)" d="M380.51 286.79L419.51 286.79L419.51 286.79L419.51 320.75L419.51 320.75L380.51 320.75z" stroke="none" fill="#FFC000" fill-rule="evenodd" /><path id="57" transform="matrix(1 0 0 -1 0 540)" d="M380.51 286.79L419.51 286.79L419.51 286.79L419.51 320.75L419.51 320.75L380.51 320.75z" stroke="#000000" stroke-width="0.96" fill="none" /><g clip-path="url(#15)"></g><path id="59" transform="matrix(1 0 0 -1 0 540)" d="M358.55 200.63L397.43 200.63L397.43 200.63L397.43 234.59L397.43 234.59L358.55 234.59z" stroke="none" fill="#FFFFFF" fill-rule="evenodd" /><path id="60" transform="matrix(1 0 0 -1 0 540)" d="M358.55 200.63L397.43 200.63L397.43 200.63L397.43 234.59L397.43 234.59L358.55 234.59z" stroke="#000000" stroke-width="0.96" fill="none" /><g clip-path="url(#16)"></g><path id="62" transform="matrix(1 0 0 -1 0 540)" d="M493.67 286.79L532.55 286.79L532.55 286.79L532.55 320.75L532.55 320.75L493.67 320.75z" stroke="none" fill="#FFC000" fill-rule="evenodd" /><path id="63" transform="matrix(1 0 0 -1 0 540)" d="M493.67 286.79L532.55 286.79L532.55 286.79L532.55 320.75L532.55 320.75L493.67 320.75z" stroke="#000000" stroke-width="0.96" fill="none" /><g clip-path="url(#17)"></g><path id="65" transform="matrix(1 0 0 -1 0 540)" d="M445.79 200.63L484.67 200.63L484.67 200.63L484.67 234.59L484.67 234.59L445.79 234.59z" stroke="none" fill="#FFFFFF" fill-rule="evenodd" /><path id="66" transform="matrix(1 0 0 -1 0 540)" d="M445.79 200.63L484.67 200.63L484.67 200.63L484.67 234.59L484.67 234.59L445.79 234.59z" stroke="#000000" stroke-width="0.96" fill="none" /><g clip-path="url(#18)"></g><path id="68" transform="matrix(1 0 0 -1 0 540)" d="M523.32 200.63L562.2 200.63L562.2 200.63L562.2 234.59L562.2 234.59L523.32 234.59z" stroke="none" fill="#FFFFFF" fill-rule="evenodd" /><path id="69" transform="matrix(1 0 0 -1 0 540)" d="M523.32 200.63L562.2 200.63L562.2 200.63L562.2 234.59L562.2 234.59L523.32 234.59z" stroke="#000000" stroke-width="0.96" fill="none" /><g clip-path="url(#19)"></g><path id="71" transform="matrix(1 0 0 -1 0 540)" d="M605.63 200.75L644.63 200.75L644.63 200.75L644.63 234.71L644.63 234.71L605.63 234.71z" stroke="none" fill="#FFFFFF" fill-rule="evenodd" /><path id="72" transform="matrix(1 0 0 -1 0 540)" d="M605.63 200.75L644.63 200.75L644.63 200.75L644.63 234.71L644.63 234.71L605.63 234.71z" stroke="#000000" stroke-width="0.96" fill="none" /><g clip-path="url(#20)"></g><path id="74" transform="matrix(1 0 0 -1 0 540)" d="M154.08 306.72L148.08 303.72L154.08 300.72zM173.97 304.22L153.08 304.22L153.08 303.22L173.97 303.22z" stroke="none" fill="#000000" fill-rule="nonzero" /><path id="75" transform="matrix(1 0 0 -1 0 540)" d="M255 306.72L249 303.72L255 300.72zM295.39 304.22L254 304.22L254 303.22L295.39 303.22z" stroke="none" fill="#000000" fill-rule="nonzero" /><path id="76" transform="matrix(1 0 0 -1 0 540)" d="M340.44 306.72L334.44 303.72L340.44 300.72zM380.57 304.22L339.44 304.22L339.44 303.22L380.57 303.22z" stroke="none" fill="#000000" fill-rule="nonzero" /><path id="77" transform="matrix(1 0 0 -1 0 540)" d="M425.51 306.72L419.51 303.72L425.51 300.72zM493.69 304.22L424.51 304.22L424.51 303.22L493.69 303.22z" stroke="none" fill="#000000" fill-rule="nonzero" /><path id="78" transform="matrix(1 0 0 -1 0 540)" d="M151.97 272.8L148.08 278.27L154.78 278.11zM261.79 217.2L152.25 275.48L152.72 276.36L262.26 218.08z" stroke="none" fill="#000000" fill-rule="nonzero" /><path id="79" transform="matrix(1 0 0 -1 0 540)" d="M343.07 220.68L337.07 217.68L343.07 214.68zM358.54 218.18L342.07 218.18L342.07 217.18L358.54 217.18z" stroke="none" fill="#000000" fill-rule="nonzero" /><path id="80" transform="matrix(1 0 0 -1 0 540)" d="M403.44 220.68L397.44 217.68L403.44 214.68zM445.73 218.18L402.44 218.18L402.44 217.18L445.73 217.18z" stroke="none" fill="#000000" fill-rule="nonzero" /><path id="81" transform="matrix(1 0 0 -1 0 540)" d="M490.67 220.68L484.67 217.68L490.67 214.68zM523.26 218.18L489.67 218.18L489.67 217.18L523.26 217.18z" stroke="none" fill="#000000" fill-rule="nonzero" /><path id="82" transform="matrix(1 0 0 -1 0 540)" d="M568.2 220.63L562.2 217.63L568.2 214.63zM605.63 218.18L567.2 218.13L567.2 217.13L605.63 217.18z" stroke="none" fill="#000000" fill-rule="nonzero" /><path id="83" transform="matrix(1 0 0 -1 0 540)" d="M215.98 325.64L211.43 320.73L218.11 320.04zM358.3 376.79L215.93 322.95L216.28 322.02L358.66 375.84z" stroke="none" fill="#000000" fill-rule="nonzero" /><path id="84" transform="matrix(1 0 0 -1 0 540)" d="M254.02 320.14L249 315.69L255.57 314.34zM475.39 376.79L253.69 317.47L253.95 316.5L475.66 375.83z" stroke="none" fill="#000000" fill-rule="nonzero" /><path id="85" transform="matrix(1 0 0 -1 0 540)" d="M298.33 241.27L299.51 234.67L304.08 239.57zM300.54 239.93L300.44 239.6L301.41 239.32L301.51 239.66zM302.52 246.66L301.39 242.82L302.35 242.53L303.48 246.37zM304.51 253.37L303.37 249.52L304.33 249.25L305.47 253.08zM306.48 260.07L305.35 256.25L306.31 255.95L307.44 259.79zM308.47 266.79L307.33 262.95L308.29 262.67L309.42 266.51zM310.44 273.51L309.31 269.67L310.27 269.38L311.41 273.23zM312.42 280.23L311.29 276.38L312.26 276.11L313.38 279.94zM314.41 286.94L313.27 283.1L314.24 282.81L315.36 286.66z" stroke="none" fill="#000000" fill-rule="nonzero" /><path id="86" transform="matrix(1 0 0 -1 0 540)" d="M377.57 241.36L378 234.67L383.1 239.02zM380.47 241.83L379.47 239.47L380.39 239.08L381.39 241.44zM383.2 248.28L381.64 244.61L382.57 244.22L384.11 247.89zM385.91 254.73L384.36 251.05L385.29 250.67L386.83 254.35zM388.64 261.19L387.08 257.51L388.01 257.11L389.55 260.79zM391.35 267.64L389.8 263.95L390.73 263.57L392.27 267.26zM394.07 274.08L392.51 270.41L393.44 270.01L395 273.71zM396.79 280.54L395.24 276.85L396.17 276.47L397.72 280.16zM399.51 286.98L397.95 283.3L398.87 282.91L400.44 286.61z" stroke="none" fill="#000000" fill-rule="nonzero" /><path id="87" transform="matrix(1 0 0 -1 0 540)" d="M378.35 352.7L378 359.39L383.57 355.67zM382.23 350.95L380.25 354.44L381.11 354.92L383.1 351.45zM385.69 344.87L383.71 348.35L384.57 348.84L386.55 345.36zM389.14 338.79L387.17 342.27L388.04 342.77L390.01 339.29zM392.61 332.71L390.64 336.19L391.51 336.67L393.48 333.21zM396.07 326.63L394.1 330.11L394.97 330.6L396.94 327.11zM399.54 320.54L397.55 324.01L398.42 324.51L400.41 321.04z" stroke="none" fill="#000000" fill-rule="nonzero" /><path id="88" transform="matrix(1 0 0 -1 0 540)" d="M542.42 241.37L542.78 234.67L537.21 238.39zM537.79 244.45L539.76 240.97L538.9 240.48L536.92 243.95zM534.32 250.53L536.29 247.07L535.43 246.57L533.46 250.05zM530.85 256.63L532.83 253.15L531.97 252.66L529.99 256.13zM527.4 262.71L529.38 259.23L528.51 258.74L526.53 262.22zM523.94 268.79L525.92 265.31L525.04 264.81L523.07 268.29zM520.48 274.87L522.46 271.39L521.59 270.91L519.6 274.37zM517.02 280.95L518.99 277.48L518.13 276.98L516.14 280.47zM513.54 287.04L515.53 283.57L514.65 283.07L512.69 286.54z" stroke="none" fill="#000000" fill-rule="nonzero" /><path id="89" transform="matrix(1 0 0 -1 0 540)" d="M339.35 280.67L334.44 285.24L341.04 286.42zM341.82 282.55L339.1 283.35L339.37 284.31L342.11 283.51zM348.54 280.58L344.71 281.71L344.98 282.67L348.82 281.54zM355.26 278.61L351.42 279.75L351.71 280.71L355.54 279.57zM361.97 276.66L358.14 277.77L358.41 278.74L362.26 277.61zM368.7 274.69L364.85 275.8L365.14 276.77L368.97 275.64zM375.41 272.72L371.57 273.84L371.85 274.8L375.7 273.67zM382.14 270.76L378.29 271.87L378.57 272.83L382.41 271.72zM388.84 268.79L385.01 269.91L385.29 270.86L389.14 269.75zM395.57 266.81L391.73 267.94L392.01 268.91L395.84 267.77zM402.29 264.85L398.44 265.97L398.73 266.94L402.57 265.81zM409.01 262.88L405.17 264.01L405.44 264.97L409.29 263.84zM415.73 260.91L411.88 262.04L412.17 263.01L416.01 261.87zM422.44 258.95L418.61 260.07L418.88 261.04L422.73 259.91zM429.16 256.98L425.31 258.11L425.6 259.07L429.44 257.94zM435.87 255.02L432.04 256.14L432.31 257.11L436.16 255.97zM442.6 253.05L438.76 254.18L439.04 255.13L442.87 254.02zM449.31 251.08L445.47 252.2L445.76 253.17L449.6 252.05zM456.02 249.12L452.2 250.25L452.47 251.2L456.31 250.08zM462.75 247.16L458.91 248.27L459.19 249.23L463.02 248.12zM469.47 245.19L465.63 246.3L465.91 247.27L469.75 246.15zM476.19 243.22L472.34 244.35L472.63 245.3L476.47 244.18zM482.91 241.25L479.07 242.38L479.34 243.33L483.19 242.22zM489.63 239.28L485.79 240.4L486.07 241.37L489.91 240.25zM496.33 237.32L492.5 238.44L492.79 239.4L496.61 238.27zM503.05 235.36L499.22 236.47L499.5 237.43L503.33 236.32zM509.77 233.38L505.94 234.5L506.22 235.47L510.05 234.35zM516.5 231.41L512.65 232.55L512.94 233.5L516.78 232.38zM523.22 229.45L519.38 230.58L519.65 231.53L523.5 230.41z" stroke="none" fill="#000000" fill-rule="nonzero" /><path id="90" transform="matrix(1 0 0 -1 0 540)" d="M516.11 340.79L513.11 346.79L510.11 340.79zM513.61 341.73L513.61 341.79L512.61 341.79L512.61 341.73zM513.61 334.73L513.61 338.73L512.61 338.73L512.61 334.73zM513.61 327.73L513.61 331.73L512.61 331.73L512.61 327.73zM513.61 320.73L513.61 324.73L512.61 324.73L512.61 320.73z" stroke="none" fill="#000000" fill-rule="nonzero" /><g clip-path="url(#21)"></g><g clip-path="url(#22)"></g><g clip-path="url(#23)"></g><g clip-path="url(#24)"></g><g clip-path="url(#25)"></g><path id="169" transform="matrix(1 0 0 -1 0 540)" d="M560.15 517.08L554.15 514.08L560.15 511.07zM601.63 514.58L559.15 514.58L559.15 513.58L601.63 513.58z" stroke="none" fill="#000000" fill-rule="nonzero" /><g clip-path="url(#26)"></g><path id="181" transform="matrix(1 0 0 -1 0 540)" d="M560.15 491.16L554.15 488.16L560.15 485.16zM559.63 488.66L559.15 488.66L559.15 487.66L559.63 487.66zM566.63 488.66L562.63 488.66L562.63 487.66L566.63 487.66zM573.63 488.66L569.63 488.66L569.63 487.66L573.63 487.66zM580.63 488.66L576.63 488.66L576.63 487.66L580.63 487.66zM587.63 488.66L583.63 488.66L583.63 487.66L587.63 487.66zM594.63 488.66L590.63 488.66L590.63 487.66L594.63 487.66zM601.63 488.66L597.63 488.66L597.63 487.66L601.63 487.66z" stroke="none" fill="#000000" fill-rule="nonzero" /><g clip-path="url(#27)"></g><path id="190" transform="matrix(1 0 0 -1 0 540)" d="M163.55 125L163.55 393.35" stroke="#4472C4" stroke-width="0.48" fill="none" /><path id="191" transform="matrix(1 0 0 -1 0 540)" d="M255.6 124.93L255.6 391.55" stroke="#4472C4" stroke-width="0.48" fill="none" /><path id="192" transform="matrix(1 0 0 -1 0 540)" d="M346.91 124.93L346.91 391.55" stroke="#4472C4" stroke-width="0.48" fill="none" /><path id="193" transform="matrix(1 0 0 -1 0 540)" d="M431.64 124.93L431.64 391.55" stroke="#4472C4" stroke-width="0.48" fill="none" /><path id="194" transform="matrix(1 0 0 -1 0 540)" d="M575.52 124.93L575.52 391.55" stroke="#4472C4" stroke-width="0.48" fill="none" /><g clip-path="url(#28)"></g><g clip-path="url(#29)"></g><g clip-path="url(#30)"></g><g clip-path="url(#31)"></g><g clip-path="url(#32)"></g><g clip-path="url(#33)"></g><g clip-path="url(#34)"></g><g clip-path="url(#35)"></g><g clip-path="url(#36)"></g><g clip-path="url(#37)"></g><g clip-path="url(#38)"></g><g clip-path="url(#39)"></g><g clip-path="url(#40)"></g><g clip-path="url(#41)"></g><g clip-path="url(#42)"></g><path id="321" transform="matrix(1 0 0 -1 0 540)" d="M227.67 55.337L261.87 55.337L261.87 55.337L261.87 57.4969L261.87 57.4969L227.67 57.4969z" stroke="none" fill="#000000" fill-rule="evenodd" /><g clip-path="url(#43)"></g><g clip-path="url(#44)"></g><path id="330" transform="matrix(1 0 0 -1 0 540)" d="M319.11 55.337L353.31 55.337L353.31 55.337L353.31 57.4969L353.31 57.4969L319.11 57.4969z" stroke="none" fill="#000000" fill-rule="evenodd" /></g></g></svg>