<svg xmlns="http://www.w3.org/2000/svg" xmlns:xlink="http://www.w3.org/1999/xlink" id="body_15" preserveAspectRatio="xMinYMin meet" viewBox="0 0 960 720"><defs><clipPath id="1"><path id="" clip-rule="evenodd" transform="matrix(1 0 0 1 0 0)" d="M0 540L0 0L0 0L720 0L720 0L720 540L720 540L0 540z" /></clipPath><clipPath id="2"><path id="" clip-rule="evenodd" transform="matrix(1 0 0 1 0 0)" d="M0 539.9999L720 539.9999L720 539.9999L720 -0.0001220703L720 -0.0001220703L0 -0.0001220703z" /></clipPath><clipPath id="3"><path id="" clip-rule="evenodd" transform="matrix(1 0 0 1 0 0)" d="M1E-05 540L720 540L720 540L720 0L720 0L1E-05 0z" /></clipPath><clipPath id="4"><path id="" clip-rule="evenodd" transform="matrix(1 0 0 1 0 0)" d="M1E-05 540L720 540L720 540L720 0L720 0L1E-05 0z" /></clipPath><clipPath id="5"><path id="" clip-rule="evenodd" transform="matrix(1 0 0 1 0 0)" d="M1E-05 540L720 540L720 540L720 0L720 0L1E-05 0z" /></clipPath><clipPath id="6"><path id="" clip-rule="evenodd" transform="matrix(1 0 0 1 0 0)" d="M1E-05 540L720 540L720 540L720 0L720 0L1E-05 0z" /></clipPath><clipPath id="7"><path id="" clip-rule="evenodd" transform="matrix(1 0 0 1 0 0)" d="M1E-05 540L720 540L720 540L720 0L720 0L1E-05 0z" /></clipPath><clipPath id="8"><path id="" clip-rule="evenodd" transform="matrix(1 0 0 1 0 0)" d="M1E-05 540L720 540L720 540L720 0L720 0L1E-05 0z" /></clipPath><clipPath id="9"><path id="" clip-rule="evenodd" transform="matrix(1 0 0 1 0 0)" d="M1E-05 540L720 540L720 540L720 0L720 0L1E-05 0z" /></clipPath><clipPath id="10"><path id="" clip-rule="evenodd" transform="matrix(1 0 0 1 0 0)" d="M1E-05 540L720 540L720 540L720 0L720 0L1E-05 0z" /></clipPath><clipPath id="11"><path id="" clip-rule="evenodd" transform="matrix(1 0 0 1 0 0)" d="M1E-05 540L720 540L720 540L720 0L720 0L1E-05 0z" /></clipPath><clipPath id="12"><path id="" clip-rule="evenodd" transform="matrix(1 0 0 1 0 0)" d="M1E-05 540L720 540L720 540L720 0L720 0L1E-05 0z" /></clipPath><clipPath id="13"><path id="" clip-rule="evenodd" transform="matrix(1 0 0 1 0 0)" d="M1E-05 540L720 540L720 540L720 0L720 0L1E-05 0z" /></clipPath><clipPath id="14"><path id="" clip-rule="evenodd" transform="matrix(1 0 0 1 0 0)" d="M1E-05 540L720 540L720 540L720 0L720 0L1E-05 0z" /></clipPath><clipPath id="15"><path id="" clip-rule="evenodd" transform="matrix(1 0 0 1 0 0)" d="M1E-05 540L720 540L720 540L720 0L720 0L1E-05 0z" /></clipPath><clipPath id="16"><path id="" clip-rule="evenodd" transform="matrix(1 0 0 1 0 0)" d="M1E-05 540L720 540L720 540L720 0L720 0L1E-05 0z" /></clipPath><clipPath id="17"><path id="" clip-rule="evenodd" transform="matrix(1 0 0 1 0 0)" d="M1E-05 540L720 540L720 540L720 0L720 0L1E-05 0z" /></clipPath><clipPath id="18"><path id="" clip-rule="evenodd" transform="matrix(1 0 0 1 0 0)" d="M1E-05 540L720 540L720 540L720 0L720 0L1E-05 0z" /></clipPath><clipPath id="19"><path id="" clip-rule="evenodd" transform="matrix(1 0 0 1 0 0)" d="M1E-05 540L720 540L720 540L720 0L720 0L1E-05 0z" /></clipPath><clipPath id="20"><path id="" clip-rule="evenodd" transform="matrix(1 0 0 1 0 0)" d="M1E-05 540L720 540L720 540L720 0L720 0L1E-05 0z" /></clipPath><clipPath id="21"><path id="" clip-rule="evenodd" transform="matrix(1 0 0 1 0 0)" d="M1E-05 540L720 540L720 540L720 0L720 0L1E-05 0z" /></clipPath><clipPath id="22"><path id="" clip-rule="evenodd" transform="matrix(1 0 0 1 0 0)" d="M1E-05 540L720 540L720 540L720 0L720 0L1E-05 0z" /></clipPath><clipPath id="23"><path id="" clip-rule="evenodd" transform="matrix(1 0 0 1 0 0)" d="M1E-05 540L720 540L720 540L720 0L720 0L1E-05 0z" /></clipPath><clipPath id="24"><path id="" clip-rule="evenodd" transform="matrix(1 0 0 1 0 0)" d="M1E-05 540L720 540L720 540L720 0L720 0L1E-05 0z" /></clipPath><clipPath id="25"><path id="" clip-rule="evenodd" transform="matrix(1 0 0 1 0 0)" d="M1E-05 540L720 540L720 540L720 0L720 0L1E-05 0z" /></clipPath><clipPath id="26"><path id="" clip-rule="evenodd" transform="matrix(1 0 0 1 0 0)" d="M1E-05 540L720 540L720 540L720 0L720 0L1E-05 0z" /></clipPath><clipPath id="27"><path id="" clip-rule="evenodd" transform="matrix(1 0 0 1 0 0)" d="M1E-05 540L720 540L720 540L720 0L720 0L1E-05 0z" /></clipPath><clipPath id="28"><path id="" clip-rule="evenodd" transform="matrix(1 0 0 1 0 0)" d="M1E-05 540L720 540L720 540L720 0L720 0L1E-05 0z" /></clipPath></defs><g transform="matrix(1.333333 0 0 1.333333 0 0)"><g clip-path="url(#1)"><g clip-path="url(#2)"><path id="1" transform="matrix(1 0 0 -1 0 540)" d="M0 6E-05L720 6E-05L720 6E-05L720 540.0001L720 540.0001L0 540.0001z" stroke="none" fill="#FFFFFF" fill-rule="evenodd" /></g><path id="2" transform="matrix(1 0 0 -1 0 540)" d="M72.959 286.79L148.078 286.79L148.078 286.79L148.078 320.75L148.078 320.75L72.959 320.75z" stroke="none" fill="#FFFFFF" fill-rule="evenodd" /><path id="3" transform="matrix(1 0 0 -1 0 540)" d="M72.959 286.79L148.078 286.79L148.078 286.79L148.078 320.75L148.078 320.75L72.959 320.75z" stroke="#000000" stroke-width="0.96" fill="none" /><g clip-path="url(#3)"></g><path id="11" transform="matrix(1 0 0 -1 0 540)" d="M72.959 269.76L148.078 269.76L148.078 269.76L148.078 286.8L148.078 286.8L72.959 286.8z" stroke="none" fill="#FFFFFF" fill-rule="evenodd" /><path id="12" transform="matrix(1 0 0 -1 0 540)" d="M72.959 269.76L148.078 269.76L148.078 269.76L148.078 286.8L148.078 286.8L72.959 286.8z" stroke="#000000" stroke-width="0.96" fill="none" /><g clip-path="url(#4)"></g><path id="16" transform="matrix(1 0 0 -1 0 540)" d="M72.959 252.83L148.078 252.83L148.078 252.83L148.078 269.75L148.078 269.75L72.959 269.75z" stroke="none" fill="#FFFFFF" fill-rule="evenodd" /><path id="17" transform="matrix(1 0 0 -1 0 540)" d="M72.959 252.83L148.078 252.83L148.078 252.83L148.078 269.75L148.078 269.75L72.959 269.75z" stroke="#000000" stroke-width="0.96" fill="none" /><g clip-path="url(#5)"></g><path id="21" transform="matrix(1 0 0 -1 0 540)" d="M174 286.79L249 286.79L249 286.79L249 320.75L249 320.75L174 320.75z" stroke="none" fill="#FFFFFF" fill-rule="evenodd" /><path id="22" transform="matrix(1 0 0 -1 0 540)" d="M174 286.79L249 286.79L249 286.79L249 320.75L249 320.75L174 320.75z" stroke="#000000" stroke-width="0.96" fill="none" /><g clip-path="url(#6)"></g><path id="24" transform="matrix(1 0 0 -1 0 540)" d="M174 269.76L249 269.76L249 269.76L249 286.8L249 286.8L174 286.8z" stroke="none" fill="#FFFFFF" fill-rule="evenodd" /><path id="25" transform="matrix(1 0 0 -1 0 540)" d="M174 269.76L249 269.76L249 269.76L249 286.8L249 286.8L174 286.8z" stroke="#000000" stroke-width="0.96" fill="none" /><g clip-path="url(#7)"></g><path id="29" transform="matrix(1 0 0 -1 0 540)" d="M261.95 200.63L337.069 200.63L337.069 200.63L337.069 234.59L337.069 234.59L261.95 234.59z" stroke="none" fill="#FFFFFF" fill-rule="evenodd" /><path id="30" transform="matrix(1 0 0 -1 0 540)" d="M261.95 200.63L337.069 200.63L337.069 200.63L337.069 234.59L337.069 234.59L261.95 234.59z" stroke="#000000" stroke-width="0.96" fill="none" /><g clip-path="url(#8)"></g><path id="32" transform="matrix(1 0 0 -1 0 540)" d="M261.95 183.72L337.069 183.72L337.069 183.72L337.069 200.64L337.069 200.64L261.95 200.64z" stroke="none" fill="#FFFFFF" fill-rule="evenodd" /><path id="33" transform="matrix(1 0 0 -1 0 540)" d="M261.95 183.72L337.069 183.72L337.069 183.72L337.069 200.64L337.069 200.64L261.95 200.64z" stroke="#000000" stroke-width="0.96" fill="none" /><g clip-path="url(#9)"></g><path id="37" transform="matrix(1 0 0 -1 0 540)" d="M261.95 166.68L337.069 166.68L337.069 166.68L337.069 183.72L337.069 183.72L261.95 183.72z" stroke="none" fill="#FFFFFF" fill-rule="evenodd" /><path id="38" transform="matrix(1 0 0 -1 0 540)" d="M261.95 166.68L337.069 166.68L337.069 166.68L337.069 183.72L337.069 183.72L261.95 183.72z" stroke="#000000" stroke-width="0.96" fill="none" /><g clip-path="url(#10)"></g><path id="42" transform="matrix(1 0 0 -1 0 540)" d="M475.55 359.39L550.669 359.39L550.669 359.39L550.669 393.35L550.669 393.35L475.55 393.35z" stroke="none" fill="#FFFFFF" fill-rule="evenodd" /><path id="43" transform="matrix(1 0 0 -1 0 540)" d="M475.55 359.39L550.669 359.39L550.669 359.39L550.669 393.35L550.669 393.35L475.55 393.35z" stroke="#000000" stroke-width="0.96" fill="none" /><g clip-path="url(#11)"></g><path id="45" transform="matrix(1 0 0 -1 0 540)" d="M475.55 346.79L550.669 346.79L550.669 346.79L550.669 363.83L550.669 363.83L475.55 363.83z" stroke="none" fill="#FFFFFF" fill-rule="evenodd" /><path id="46" transform="matrix(1 0 0 -1 0 540)" d="M475.55 346.79L550.669 346.79L550.669 346.79L550.669 363.83L550.669 363.83L475.55 363.83z" stroke="#000000" stroke-width="0.96" fill="none" /><g clip-path="url(#12)"></g><path id="50" transform="matrix(1 0 0 -1 0 540)" d="M295.44 286.79L334.44 286.79L334.44 286.79L334.44 320.75L334.44 320.75L295.44 320.75z" stroke="none" fill="#FFFFFF" fill-rule="evenodd" /><path id="51" transform="matrix(1 0 0 -1 0 540)" d="M295.44 286.79L334.44 286.79L334.44 286.79L334.44 320.75L334.44 320.75L295.44 320.75z" stroke="#000000" stroke-width="0.96" fill="none" /><g clip-path="url(#13)"></g><path id="53" transform="matrix(1 0 0 -1 0 540)" d="M358.55 359.39L397.43 359.39L397.43 359.39L397.43 393.35L397.43 393.35L358.55 393.35z" stroke="none" fill="#FFFFFF" fill-rule="evenodd" /><path id="54" transform="matrix(1 0 0 -1 0 540)" d="M358.55 359.39L397.43 359.39L397.43 359.39L397.43 393.35L397.43 393.35L358.55 393.35z" stroke="#000000" stroke-width="0.96" fill="none" /><g clip-path="url(#14)"></g><path id="56" transform="matrix(1 0 0 -1 0 540)" d="M380.51 286.79L419.51 286.79L419.51 286.79L419.51 320.75L419.51 320.75L380.51 320.75z" stroke="none" fill="#FFFFFF" fill-rule="evenodd" /><path id="57" transform="matrix(1 0 0 -1 0 540)" d="M380.51 286.79L419.51 286.79L419.51 286.79L419.51 320.75L419.51 320.75L380.51 320.75z" stroke="#000000" stroke-width="0.96" fill="none" /><g clip-path="url(#15)"></g><path id="59" transform="matrix(1 0 0 -1 0 540)" d="M358.55 200.63L397.43 200.63L397.43 200.63L397.43 234.59L397.43 234.59L358.55 234.59z" stroke="none" fill="#FFFFFF" fill-rule="evenodd" /><path id="60" transform="matrix(1 0 0 -1 0 540)" d="M358.55 200.63L397.43 200.63L397.43 200.63L397.43 234.59L397.43 234.59L358.55 234.59z" stroke="#000000" stroke-width="0.96" fill="none" /><g clip-path="url(#16)"></g><path id="62" transform="matrix(1 0 0 -1 0 540)" d="M493.67 286.79L532.55 286.79L532.55 286.79L532.55 320.75L532.55 320.75L493.67 320.75z" stroke="none" fill="#FFFFFF" fill-rule="evenodd" /><path id="63" transform="matrix(1 0 0 -1 0 540)" d="M493.67 286.79L532.55 286.79L532.55 286.79L532.55 320.75L532.55 320.75L493.67 320.75z" stroke="#000000" stroke-width="0.96" fill="none" /><g clip-path="url(#17)"></g><path id="65" transform="matrix(1 0 0 -1 0 540)" d="M445.79 200.63L484.67 200.63L484.67 200.63L484.67 234.59L484.67 234.59L445.79 234.59z" stroke="none" fill="#FFFFFF" fill-rule="evenodd" /><path id="66" transform="matrix(1 0 0 -1 0 540)" d="M445.79 200.63L484.67 200.63L484.67 200.63L484.67 234.59L484.67 234.59L445.79 234.59z" stroke="#000000" stroke-width="0.96" fill="none" /><g clip-path="url(#18)"></g><path id="68" transform="matrix(1 0 0 -1 0 540)" d="M523.32 200.63L562.2 200.63L562.2 200.63L562.2 234.59L562.2 234.59L523.32 234.59z" stroke="none" fill="#FFFFFF" fill-rule="evenodd" /><path id="69" transform="matrix(1 0 0 -1 0 540)" d="M523.32 200.63L562.2 200.63L562.2 200.63L562.2 234.59L562.2 234.59L523.32 234.59z" stroke="#000000" stroke-width="0.96" fill="none" /><g clip-path="url(#19)"></g><path id="71" transform="matrix(1 0 0 -1 0 540)" d="M605.63 200.75L644.63 200.75L644.63 200.75L644.63 234.71L644.63 234.71L605.63 234.71z" stroke="none" fill="#FFFFFF" fill-rule="evenodd" /><path id="72" transform="matrix(1 0 0 -1 0 540)" d="M605.63 200.75L644.63 200.75L644.63 200.75L644.63 234.71L644.63 234.71L605.63 234.71z" stroke="#000000" stroke-width="0.96" fill="none" /><g clip-path="url(#20)"></g><path id="74" transform="matrix(1 0 0 -1 0 540)" d="M154.08 306.72L148.08 303.72L154.08 300.72zM173.97 304.22L153.08 304.22L153.08 303.22L173.97 303.22z" stroke="none" fill="#000000" fill-rule="nonzero" /><path id="75" transform="matrix(1 0 0 -1 0 540)" d="M255 306.72L249 303.72L255 300.72zM295.39 304.22L254 304.22L254 303.22L295.39 303.22z" stroke="none" fill="#000000" fill-rule="nonzero" /><path id="76" transform="matrix(1 0 0 -1 0 540)" d="M340.44 306.72L334.44 303.72L340.44 300.72zM380.57 304.22L339.44 304.22L339.44 303.22L380.57 303.22z" stroke="none" fill="#000000" fill-rule="nonzero" /><path id="77" transform="matrix(1 0 0 -1 0 540)" d="M425.51 306.72L419.51 303.72L425.51 300.72zM493.69 304.22L424.51 304.22L424.51 303.22L493.69 303.22z" stroke="none" fill="#000000" fill-rule="nonzero" /><path id="78" transform="matrix(1 0 0 -1 0 540)" d="M151.97 272.8L148.08 278.27L154.78 278.11zM261.79 217.2L152.25 275.48L152.72 276.36L262.26 218.08z" stroke="none" fill="#000000" fill-rule="nonzero" /><path id="79" transform="matrix(1 0 0 -1 0 540)" d="M343.07 220.68L337.07 217.68L343.07 214.68zM358.54 218.18L342.07 218.18L342.07 217.18L358.54 217.18z" stroke="none" fill="#000000" fill-rule="nonzero" /><path id="80" transform="matrix(1 0 0 -1 0 540)" d="M403.44 220.68L397.44 217.68L403.44 214.68zM445.73 218.18L402.44 218.18L402.44 217.18L445.73 217.18z" stroke="none" fill="#000000" fill-rule="nonzero" /><path id="81" transform="matrix(1 0 0 -1 0 540)" d="M490.67 220.68L484.67 217.68L490.67 214.68zM523.26 218.18L489.67 218.18L489.67 217.18L523.26 217.18z" stroke="none" fill="#000000" fill-rule="nonzero" /><path id="82" transform="matrix(1 0 0 -1 0 540)" d="M568.2 220.63L562.2 217.63L568.2 214.63zM605.63 218.18L567.2 218.13L567.2 217.13L605.63 217.18z" stroke="none" fill="#000000" fill-rule="nonzero" /><path id="83" transform="matrix(1 0 0 -1 0 540)" d="M215.98 325.64L211.43 320.73L218.11 320.04zM358.3 376.79L215.93 322.95L216.28 322.02L358.66 375.84z" stroke="none" fill="#000000" fill-rule="nonzero" /><path id="84" transform="matrix(1 0 0 -1 0 540)" d="M254.02 320.14L249 315.69L255.57 314.34zM475.39 376.79L253.69 317.47L253.95 316.5L475.66 375.83z" stroke="none" fill="#000000" fill-rule="nonzero" /><g clip-path="url(#21)"></g><g clip-path="url(#22)"></g><g clip-path="url(#23)"></g><g clip-path="url(#24)"></g><g clip-path="url(#25)"></g><path id="163" transform="matrix(1 0 0 -1 0 540)" d="M560.15 517.08L554.15 514.08L560.15 511.07zM601.63 514.58L559.15 514.58L559.15 513.58L601.63 513.58z" stroke="none" fill="#000000" fill-rule="nonzero" /><g clip-path="url(#26)"></g><g clip-path="url(#27)"></g><g clip-path="url(#28)"></g></g></g></svg>