<svg xmlns="http://www.w3.org/2000/svg" xmlns:xlink="http://www.w3.org/1999/xlink" id="body_5" preserveAspectRatio="xMinYMin meet" viewBox="0 0 960 720"><defs><clipPath id="1"><path id="" clip-rule="evenodd" transform="matrix(1 0 0 1 0 0)" d="M0 540L0 0L0 0L720 0L720 0L720 540L720 540L0 540z" /></clipPath><clipPath id="2"><path id="" clip-rule="evenodd" transform="matrix(1 0 0 1 0 0)" d="M0 539.9999L720 539.9999L720 539.9999L720 -0.0001220703L720 -0.0001220703L0 -0.0001220703z" /></clipPath><clipPath id="3"><path id="" clip-rule="evenodd" transform="matrix(1 0 0 1 0 0)" d="M1E-05 540L720 540L720 540L720 0L720 0L1E-05 0z" /></clipPath><clipPath id="4"><path id="" clip-rule="evenodd" transform="matrix(1 0 0 1 0 0)" d="M1E-05 540L720 540L720 540L720 0L720 0L1E-05 0z" /></clipPath><clipPath id="5"><path id="" clip-rule="evenodd" transform="matrix(1 0 0 1 0 0)" d="M1E-05 540L720 540L720 540L720 0L720 0L1E-05 0z" /></clipPath><clipPath id="6"><path id="" clip-rule="evenodd" transform="matrix(1 0 0 1 0 0)" d="M1E-05 540L720 540L720 540L720 0L720 0L1E-05 0z" /></clipPath><clipPath id="7"><path id="" clip-rule="evenodd" transform="matrix(1 0 0 1 0 0)" d="M1E-05 540L720 540L720 540L720 0L720 0L1E-05 0z" /></clipPath><clipPath id="8"><path id="" clip-rule="evenodd" transform="matrix(1 0 0 1 0 0)" d="M1E-05 540L720 540L720 540L720 0L720 0L1E-05 0z" /></clipPath><clipPath id="9"><path id="" clip-rule="evenodd" transform="matrix(1 0 0 1 0 0)" d="M1E-05 540L720 540L720 540L720 0L720 0L1E-05 0z" /></clipPath><clipPath id="10"><path id="" clip-rule="evenodd" transform="matrix(1 0 0 1 0 0)" d="M1E-05 540L720 540L720 540L720 0L720 0L1E-05 0z" /></clipPath><clipPath id="11"><path id="" clip-rule="evenodd" transform="matrix(1 0 0 1 0 0)" d="M1E-05 540L720 540L720 540L720 0L720 0L1E-05 0z" /></clipPath><clipPath id="12"><path id="" clip-rule="evenodd" transform="matrix(1 0 0 1 0 0)" d="M1E-05 540L720 540L720 540L720 0L720 0L1E-05 0z" /></clipPath><clipPath id="13"><path id="" clip-rule="evenodd" transform="matrix(1 0 0 1 0 0)" d="M1E-05 540L720 540L720 540L720 0L720 0L1E-05 0z" /></clipPath><clipPath id="14"><path id="" clip-rule="evenodd" transform="matrix(1 0 0 1 0 0)" d="M1E-05 540L720 540L720 540L720 0L720 0L1E-05 0z" /></clipPath><clipPath id="15"><path id="" clip-rule="evenodd" transform="matrix(1 0 0 1 0 0)" d="M1E-05 540L720 540L720 540L720 0L720 0L1E-05 0z" /></clipPath><clipPath id="16"><path id="" clip-rule="evenodd" transform="matrix(1 0 0 1 0 0)" d="M1E-05 540L720 540L720 540L720 0L720 0L1E-05 0z" /></clipPath><clipPath id="17"><path id="" clip-rule="evenodd" transform="matrix(1 0 0 1 0 0)" d="M1E-05 540L720 540L720 540L720 0L720 0L1E-05 0z" /></clipPath><clipPath id="18"><path id="" clip-rule="evenodd" transform="matrix(1 0 0 1 0 0)" d="M1E-05 540L720 540L720 540L720 0L720 0L1E-05 0z" /></clipPath><clipPath id="19"><path id="" clip-rule="evenodd" transform="matrix(1 0 0 1 0 0)" d="M1E-05 540L720 540L720 540L720 0L720 0L1E-05 0z" /></clipPath><clipPath id="20"><path id="" clip-rule="evenodd" transform="matrix(1 0 0 1 0 0)" d="M1E-05 540L720 540L720 540L720 0L720 0L1E-05 0z" /></clipPath><clipPath id="21"><path id="" clip-rule="evenodd" transform="matrix(1 0 0 1 0 0)" d="M1E-05 540L720 540L720 540L720 0L720 0L1E-05 0z" /></clipPath><clipPath id="22"><path id="" clip-rule="evenodd" transform="matrix(1 0 0 1 0 0)" d="M1E-05 540L720 540L720 540L720 0L720 0L1E-05 0z" /></clipPath><clipPath id="23"><path id="" clip-rule="evenodd" transform="matrix(1 0 0 1 0 0)" d="M1E-05 540L720 540L720 540L720 0L720 0L1E-05 0z" /></clipPath><clipPath id="24"><path id="" clip-rule="evenodd" transform="matrix(1 0 0 1 0 0)" d="M1E-05 540L720 540L720 540L720 0L720 0L1E-05 0z" /></clipPath><clipPath id="25"><path id="" clip-rule="evenodd" transform="matrix(1 0 0 1 0 0)" d="M1E-05 540L720 540L720 540L720 0L720 0L1E-05 0z" /></clipPath><clipPath id="26"><path id="" clip-rule="evenodd" transform="matrix(1 0 0 1 0 0)" d="M1E-05 540L720 540L720 540L720 0L720 0L1E-05 0z" /></clipPath><clipPath id="27"><path id="" clip-rule="evenodd" transform="matrix(1 0 0 1 0 0)" d="M1E-05 540L720 540L720 540L720 0L720 0L1E-05 0z" /></clipPath><clipPath id="28"><path id="" clip-rule="evenodd" transform="matrix(1 0 0 1 0 0)" d="M1E-05 540L720 540L720 540L720 0L720 0L1E-05 0z" /></clipPath><clipPath id="29"><path id="" clip-rule="evenodd" transform="matrix(1 0 0 1 0 0)" d="M1E-05 540L720 540L720 540L720 0L720 0L1E-05 0z" /></clipPath><clipPath id="30"><path id="" clip-rule="evenodd" transform="matrix(1 0 0 1 0 0)" d="M1E-05 540L720 540L720 540L720 0L720 0L1E-05 0z" /></clipPath><clipPath id="31"><path id="" clip-rule="evenodd" transform="matrix(1 0 0 1 0 0)" d="M1E-05 540L720 540L720 540L720 0L720 0L1E-05 0z" /></clipPath><clipPath id="32"><path id="" clip-rule="evenodd" transform="matrix(1 0 0 1 0 0)" d="M1E-05 540L720 540L720 540L720 0L720 0L1E-05 0z" /></clipPath><clipPath id="33"><path id="" clip-rule="evenodd" transform="matrix(1 0 0 1 0 0)" d="M1E-05 540L720 540L720 540L720 0L720 0L1E-05 0z" /></clipPath><clipPath id="34"><path id="" clip-rule="evenodd" transform="matrix(1 0 0 1 0 0)" d="M1E-05 540L720 540L720 540L720 0L720 0L1E-05 0z" /></clipPath><clipPath id="35"><path id="" clip-rule="evenodd" transform="matrix(1 0 0 1 0 0)" d="M1E-05 540L720 540L720 540L720 0L720 0L1E-05 0z" /></clipPath></defs><g transform="matrix(1.333333 0 0 1.333333 0 0)"><g clip-path="url(#1)"><g clip-path="url(#2)"><path id="1" transform="matrix(1 0 0 -1 0 540)" d="M0 6E-05L720 6E-05L720 6E-05L720 540.0001L720 540.0001L0 540.0001z" stroke="none" fill="#FFFFFF" fill-rule="evenodd" /></g><g clip-path="url(#3)"></g><g clip-path="url(#4)"></g><g clip-path="url(#5)"></g><g clip-path="url(#6)"></g><g clip-path="url(#7)"></g><g clip-path="url(#8)"></g><g clip-path="url(#9)"></g><g clip-path="url(#10)"></g><g clip-path="url(#11)"></g><g clip-path="url(#12)"></g><g clip-path="url(#13)"></g><g clip-path="url(#14)"></g><path id="135" transform="matrix(1 0 0 -1 0 540)" d="M211.97 321.77L290.45 321.77L290.45 321.77L290.45 359.33L290.45 359.33L211.97 359.33z" stroke="none" fill="#FFFFFF" fill-rule="evenodd" /><path id="136" transform="matrix(1 0 0 -1 0 540)" d="M211.97 321.77L290.45 321.77L290.45 321.77L290.45 359.33L290.45 359.33L211.97 359.33z" stroke="#000000" stroke-width="2.039" fill="none" /><g clip-path="url(#15)"></g><g clip-path="url(#16)"></g><g clip-path="url(#17)"></g><g clip-path="url(#18)"></g><g clip-path="url(#19)"></g><path id="146" transform="matrix(1 0 0 -1 0 540)" d="M110.69 321.77L189.17 321.77L189.17 321.77L189.17 359.33L189.17 359.33L110.69 359.33z" stroke="none" fill="#FFFFFF" fill-rule="evenodd" /><path id="147" transform="matrix(1 0 0 -1 0 540)" d="M110.69 321.77L189.17 321.77L189.17 321.77L189.17 359.33L189.17 359.33L110.69 359.33z" stroke="#000000" stroke-width="2.039" fill="none" /><g clip-path="url(#20)"></g><g clip-path="url(#21)"></g><g clip-path="url(#22)"></g><g clip-path="url(#23)"></g><path id="156" transform="matrix(1 0 0 -1 0 540)" d="M313.26 321.77L391.74 321.77L391.74 321.77L391.74 359.33L391.74 359.33L313.26 359.33z" stroke="none" fill="#FFFFFF" fill-rule="evenodd" /><path id="157" transform="matrix(1 0 0 -1 0 540)" d="M313.26 321.77L391.74 321.77L391.74 321.77L391.74 359.33L391.74 359.33L313.26 359.33z" stroke="#000000" stroke-width="2.039" fill="none" /><g clip-path="url(#24)"></g><g clip-path="url(#25)"></g><g clip-path="url(#26)"></g><g clip-path="url(#27)"></g><path id="166" transform="matrix(1 0 0 -1 0 540)" d="M414.54 321.77L493.02 321.77L493.02 321.77L493.02 359.33L493.02 359.33L414.54 359.33z" stroke="none" fill="#FFFFFF" fill-rule="evenodd" /><path id="167" transform="matrix(1 0 0 -1 0 540)" d="M414.54 321.77L493.02 321.77L493.02 321.77L493.02 359.33L493.02 359.33L414.54 359.33z" stroke="#000000" stroke-width="2.039" fill="none" /><g clip-path="url(#28)"></g><g clip-path="url(#29)"></g><path id="174" transform="matrix(1 0 0 -1 0 540)" d="M515.82 321.77L594.3 321.77L594.3 321.77L594.3 359.33L594.3 359.33L515.82 359.33z" stroke="none" fill="#FFFFFF" fill-rule="evenodd" /><path id="175" transform="matrix(1 0 0 -1 0 540)" d="M515.82 321.77L594.3 321.77L594.3 321.77L594.3 359.33L594.3 359.33L515.82 359.33z" stroke="#000000" stroke-width="2.039" stroke-dasharray="4.001962,3.000981" fill="none" /><g clip-path="url(#30)"></g><g clip-path="url(#31)"></g><g clip-path="url(#32)"></g><path id="184" transform="matrix(1 0 0 -1 0 540)" d="M86.86 343.51L80.88 340.47L86.9 337.51zM110.75 341.17L85.877 341.01L85.883 340.01L110.75 340.17z" stroke="none" fill="#000000" fill-rule="nonzero" /><path id="185" transform="matrix(1 0 0 -1 0 540)" d="M195.12 343.67L189.12 340.67L195.12 337.67zM211.9 341.17L194.12 341.17L194.12 340.17L211.9 340.17z" stroke="none" fill="#000000" fill-rule="nonzero" /><path id="186" transform="matrix(1 0 0 -1 0 540)" d="M296.39 343.67L290.39 340.67L296.39 337.67zM313.19 341.17L295.39 341.17L295.39 340.17L313.19 340.17z" stroke="none" fill="#000000" fill-rule="nonzero" /><path id="187" transform="matrix(1 0 0 -1 0 540)" d="M397.67 343.67L391.67 340.67L397.67 337.67zM414.47 341.17L396.67 341.17L396.67 340.17L414.47 340.17z" stroke="none" fill="#000000" fill-rule="nonzero" /><path id="188" transform="matrix(1 0 0 -1 0 540)" d="M498.95 343.67L492.95 340.67L498.95 337.67zM515.75 341.17L497.95 341.17L497.95 340.17L515.75 340.17z" stroke="none" fill="#000000" fill-rule="nonzero" /><path id="189" transform="matrix(1 0 0 -1 0 540)" d="M555 321.83L633.47 295.64" stroke="#4472C4" stroke-width="0.48" fill="none" /><path id="190" transform="matrix(1 0 0 -1 0 540)" d="M594.29 274.97L672.77 274.97L672.77 274.97L672.77 295.61L672.77 295.61L594.29 295.61z" stroke="none" fill="#FFFFFF" fill-rule="evenodd" /><path id="191" transform="matrix(1 0 0 -1 0 540)" d="M594.29 274.97L672.77 274.97L672.77 274.97L672.77 295.61L672.77 295.61L594.29 295.61z" stroke="#000000" stroke-width="2.039" fill="none" /><g clip-path="url(#33)"></g><path id="195" transform="matrix(1 0 0 -1 0 540)" d="M594.29 254.82L672.77 254.82L672.77 254.82L672.77 275.58L672.77 275.58L594.29 275.58z" stroke="none" fill="#FFFFFF" fill-rule="evenodd" /><path id="196" transform="matrix(1 0 0 -1 0 540)" d="M594.29 254.82L672.77 254.82L672.77 254.82L672.77 275.58L672.77 275.58L594.29 275.58z" stroke="#000000" stroke-width="2.039" fill="none" /><g clip-path="url(#34)"></g><path id="198" transform="matrix(1 0 0 -1 0 540)" d="M594.29 234.18L672.77 234.18L672.77 234.18L672.77 254.82L672.77 254.82L594.29 254.82z" stroke="none" fill="#FFFFFF" fill-rule="evenodd" /><path id="199" transform="matrix(1 0 0 -1 0 540)" d="M594.29 234.18L672.77 234.18L672.77 234.18L672.77 254.82L672.77 254.82L594.29 254.82z" stroke="#000000" stroke-width="2.039" fill="none" /><g clip-path="url(#35)"></g></g></g></svg>