<svg 
  version="1.1" 
  width="2500" 
  height="2500" 
  viewBox="0 0 1270.35 2000" 
  xmlns="http://www.w3.org/2000/svg" 
  xmlns:xlink="http://www.w3.org/1999/xlink" 
  overflow="hidden">
  <g fill="#1A6896">
    <path d=" M 933.19 393.92 L 918.96 503.04 L 1000.63 571.47 L 1146.34 520.39 L 1048.63 439.3 L 999.68 346.19 L 738.42 96.5 L 808.11 273.72 L 933.19 393.92"/>
    <path d=" M 744.18 450.74 L 728.02 547.63 L 543.82 679.88 L 561.96 895.2 L 701.35 1250.17 L 780.31 1107.27 L 754.7 1067.69 L 830.72 883.77 L 830.72 789.76 L 975.31 592.42 L 884.63 516.44 L 899.05 405.91 L 780.62 292.12 L 680.51 39.87 L 673.45 36.03 L 674.41 270.32 L 744.18 450.74"/>
    <path d=" M 1111.9 1087.52 L 1126.22 1062.44 L 1126.22 872.64 L 1159.03 550.19 L 1007.37 603.34 L 863.04 800.33 L 863.04 890.16 L 791.05 1064.37 L 808.31 1091.06 L 1087.99 1110.7 L 1111.9 1087.52 M 663.04 1536.38 L 707.22 1557.85 L 740.64 1520.85 L 838.53 1506.51 L 875.54 1456.37 L 959.1 1454 L 963.88 1428.92 L 1046.23 1413.42 L 1071.02 1141.9 L 808.29 1123.45 L 713.58 1294.81 L 621.32 1544.02 L 630.82 1590.09 L 663.04 1536.38 M 438.48 1147.07 L 193.46 1254.74 L 199.87 1409.03 L 303.73 1461.16 L 328.79 1502.94 L 381.32 1475.48 L 412.35 1485.03 L 421.91 1459.98 L 443.4 1451.61 L 510.25 1477.88 L 535.31 1539.96 L 589.03 1514.88 L 597.65 1514.88 L 681.56 1288.22 L 544.19 938.35 L 438.48 1147.07"/>
    <path d=" M 154.51 1161.53 L 175 1227.56 L 414.88 1122.13 L 529.57 895.68 L 511.76 684.1 L 57.73 535.05 L 162.87 1081.54 L 154.51 1161.53 M 698.34 529.16 L 710.85 454.15 L 642.13 276.43 L 640.99 1 L 620.08 0 L 595 11.94 L 67.7 504.31 L 524.2 654.18 L 698.34 529.16 Z M 1190.64 1380 L 1098.7 1336.41 L 1092.45 1404.98 L 1120.24 1418.16 L 1003.68 1498 L 874.1 1601.59 L 737.18 1637 L 626.11 1695.4 L 487.28 1644.06 L 238.88 1502.7 L 134.33 1417.49 L 154.63 1409.98 L 151.81 1342.12 L 64.81 1374.25 L -0.04 1496.91 L 10.96 1712.11 L 144.96 1769.75 L 165.94 1786 L 442.01 1921 L 465.09 1924.48 L 596.74 1996.94 L 665.59 2000.07 L 756.29 1952.12 L 1040.94 1817.55 L 1253.56 1700.92 L 1270.36 1512.06 M 626.58 1869.54 L 626.58 1933.54 L 614.72 1933 L 486.18 1862.21 L 461.51 1858.49 L 200.41 1730.86 L 178.28 1713.65 L 73.58 1668.65 L 65.52 1511.39 L 105.52 1435.7 L 220.52 1529.49 L 472.38 1672.81 L 613.57 1725.25 L 641.21 1836.9 M 1192.25 1660.78 L 1012.45 1759.46 L 728.03 1893.93 L 658.91 1930.44 L 658.91 1876.44 L 675.29 1839.91 L 645.96 1721.43 L 748.88 1667.32 L 888.88 1631.11 L 1022.42 1524.28 L 1149.66 1437.17 L 1204.12 1527.31"/>
  </g>
</svg>